<?xml version="1.0" encoding="UTF-8"?>
<svg id="_图层_1" data-name="图层_1" xmlns="http://www.w3.org/2000/svg" viewBox="0 0 665.5359 732.0878">
  <polygon points="332.7671 732.0878 0 732.0878 0 266.2135 66.5528 266.2135 66.5528 665.5351 332.7671 665.5351 332.7671 732.0878"/>
  <rect x="133.1072" y="133.1072" width="66.5528" height="66.5544"/>
  <rect x="133.1072" y="266.2144" width="66.5528" height="332.7671"/>
  <polygon points="266.2144 66.5528 66.5528 66.5528 66.5528 332.7671 0 332.7671 0 0 266.2144 0 266.2144 66.5528"/>
  <rect x="266.2144" y="66.5528" width="66.5528" height="266.2144"/>
  <polygon points="532.4271 465.8735 399.3199 465.8735 399.3199 732.0878 332.7671 732.0878 332.7671 266.2135 399.3199 266.2135 399.3199 399.3207 532.4271 399.3207 532.4271 465.8735"/>
  <rect x="532.4271" y="332.7679" width="66.5544" height="66.5528"/>
  <rect x="532.4271" y="465.8735" width="66.5544" height="66.5544"/>
  <rect x="598.9815" y="266.2135" width="66.5512" height="66.5544"/>
  <rect x="598.9815" y="532.4279" width="66.5512" height="199.66"/>
  <rect x="332.7704" y="199.66" width="66.5544" height="66.5544"/>
  <rect x="399.3248" width="199.66" height="66.5528"/>
  <polygon points="665.5359 66.5528 665.5359 332.7671 399.3248 332.7671 399.3248 266.2144 598.9847 266.2144 598.9847 199.66 399.3248 199.66 399.3248 133.1072 598.9847 133.1072 598.9847 66.5528 665.5359 66.5528"/>
</svg>