<?xml version="1.0" encoding="utf-8"?>
<!-- Generator: Adobe Illustrator 25.0.0, SVG Export Plug-In . SVG Version: 6.00 Build 0)  -->
<svg version="1.1" id="图层_1" xmlns="http://www.w3.org/2000/svg" xmlns:xlink="http://www.w3.org/1999/xlink" x="0px" y="0px"
	 viewBox="0 0 1280 720" style="enable-background:new 0 0 1280 720;" xml:space="preserve">
<style type="text/css">
	.st0{fill:#FFFFFF;fill-opacity:0;}
	.st1{fill:#BFBFBF;}
	.st2{fill:#D9F2D0;}
	.st3{fill-rule:evenodd;clip-rule:evenodd;fill:#DCEAF7;}
	.st4{fill:#DCEAF7;}
	.st5{fill:none;stroke:#A6CAEC;stroke-width:2;stroke-miterlimit:8;}
	.st6{fill-rule:evenodd;clip-rule:evenodd;fill:#FFFFFF;stroke:#A6CAEC;stroke-width:2;stroke-miterlimit:8;}
	.st7{fill-rule:evenodd;clip-rule:evenodd;fill:#A6CAEC;}
	.st8{fill:none;stroke:#AEAEAE;stroke-width:2;stroke-miterlimit:8;}
	.st9{fill-rule:evenodd;clip-rule:evenodd;fill:#D9F2D0;}
</style>
<g>
	<rect class="st0" width="1280" height="720"/>
	<rect x="937" y="299" class="st1" width="158" height="61"/>
	<rect x="973" y="300" class="st2" width="86" height="57"/>
	<path class="st3" d="M989.6,340.6v11.7h55.3v-11.7H989.6z M989.6,302.7v11.7h55.3v-11.7H989.6z M939,253h156v49.7h-9.9v49.7h9.9
		V402H939v-49.7h10.4v-49.7H939V253z"/>
	<path class="st3" d="M866,164h80.8v16.2h65.2V222h-80.8v-16.2H866V164z"/>
	<rect x="1012" y="193" class="st4" width="27" height="9"/>
	<path class="st3" d="M780.8,155.1l15.7,15.7l-21.4,21.4l-15.7-15.7L780.8,155.1z M784,115.5h0.9h34.2h47.4l0,28.3h-75.6l-37,37
		v43.6h-39.1V115.5h39.1v30.2L784,115.5z"/>
	<path class="st3" d="M545,116h149v43.1h-78.5V179h-55v-19.9H545V116z"/>
	<rect x="627" y="189" class="st4" width="67" height="37"/>
	<path class="st3" d="M1058.8,452c20,0,36.2,1.6,36.2,3.5v28.2c0-1.9-16.2-3.5-36.2-3.5s-36.2,1.6-36.2,3.5c0,1.9-16.2,3.5-36.2,3.5
		c-5,0-9.8-0.1-14.1-0.3l-0.1,0v35.5h79.5l3.1-7.4c2.2-2.2,5.3-3.6,8.7-3.6c6.8,0,12.3,5.5,12.3,12.3s-5.5,12.3-12.3,12.3v11H950
		v-20.8v-3.8v-38.8v-14.1v-14.1c0,1.9,16.2,3.5,36.2,3.5c20,0,36.2-1.6,36.2-3.5C1022.5,453.6,1038.7,452,1058.8,452z"/>
	<rect x="830" y="529" class="st4" width="87" height="72"/>
	<rect x="743" y="470" class="st4" width="69" height="100"/>
	<rect x="683" y="542" class="st4" width="47" height="28"/>
	<rect x="677" y="461" class="st4" width="48" height="58"/>
	<rect x="620" y="461" class="st4" width="47" height="77"/>
	<rect x="562" y="461" class="st4" width="48" height="77"/>
	<rect x="506" y="461" class="st4" width="48" height="77"/>
	<path class="st3" d="M401.9,293.9l51.2-0.1l-25.6,25.6L401.9,293.9z"/>
	<path class="st3" d="M424.8,125H506v104.3h-14.3l13,13.1L466.3,281h-76.8L351,242.4l73.8-74.1V125z"/>
	<path class="st3" d="M303.7,199.5l10.8,34.5L221,263.2l8.2,27.3l-28.1,8.5l-8.1-27l-1,0.3l-10.8-34.5L303.7,199.5z"/>
	<path class="st3" d="M193.7,344.7l0.1,0.4l0,0l58.2,170.9l0,0l0.2,0.4c10.4,30.4-5.9,63.4-36.3,73.8c-30.4,10.4-63.4-5.9-73.8-36.3
		l-0.1-0.4l0,0L83.8,382.6l0,0l-0.2-0.4c-10.4-30.4,5.9-63.4,36.3-73.8C150.3,298.1,183.4,314.3,193.7,344.7z"/>
	<path class="st3" d="M12.7,325.7l28.7-9.4l98,300.5l-28.7,9.3L12.7,325.7z"/>
	<path class="st5" d="M937.8,251.7v151.7h157.9V251.7H937.8z M651.8,251.7v164.6h261.4V251.7H651.8z M538.8,227.6l0.3,0.3h607.9
		v23.9h-17.8v188.5h-23.5h-9.9l-443.9,0h-24.5H505.8v-23.9h121.5v-15.6h-98.8H391.8L290,502.5l61.1,188.9l-23.3,7.5L204.1,316.9
		l23.3-7.5l56.1,173.4L538.8,227.6z"/>
	<path class="st3" d="M545.3,283h63.3v6.8H627v74.9h-18.4v8.2h-63.3v-13.7H495v-62.7h50.3V283z"/>
	<rect x="654" y="253" class="st2" width="258" height="162"/>
	<path class="st6" d="M773.6,253h24.6v20.9h37.5c22.8,0,41.2,18.4,41.2,41.1v6.7h35v23.1h-35v1.2c0,22.7-18.4,41.1-41.2,41.1h-37.5
		V414h-24.6v-26.8h-35.6c-22.8,0-41.2-18.4-41.2-41.1v-1.2H654v-23.1h42.9V315c0-22.7,18.4-41.1,41.2-41.1h35.6V253z"/>
	<path class="st7" d="M717,331.5c0-25.1,30.2-45.5,67.5-45.5s67.5,20.4,67.5,45.5S821.8,377,784.5,377S717,356.6,717,331.5z"/>
	<rect x="506" y="401" class="st2" width="122" height="15"/>
	<path class="st8" d="M1105,267.5c0-36.7,29.6-66.5,66-66.5s66,29.8,66,66.5s-29.6,66.5-66,66.5S1105,304.2,1105,267.5z"/>
	<path class="st3" d="M1094.1,139H1269v37.3c-7,0-13.1,4.3-15.6,10.4l-1.2,5.7h-120.4V222H1039v-57.5h55.1V139z"/>
	<path class="st9" d="M173.7,342.8l64.9,186.4l-76.5,26.7L97.2,369.5L173.7,342.8z"/>
</g>
<g>
	<path d="M1162.1,264.8v0.5h2.6v0.2h-5.4v-0.2h2.6v-0.5h-2v-0.2h2v-0.5h-2.2v-0.3h2.2v-0.6h0.3v0.6h2.3v0.3h-2.3v0.5h2v0.2H1162.1z
		 M1160.1,268.6V266h3.8v2c0,0.2,0,0.3-0.1,0.4s-0.1,0.1-0.2,0.2c-0.1,0-0.2,0.1-0.4,0.1c-0.2,0-0.5,0-0.7,0l0-0.3
		c0.2,0,0.4,0,0.6,0c0.1,0,0.3,0,0.3,0c0.1,0,0.1-0.1,0.1-0.1c0-0.1,0-0.1,0-0.3v-0.2h-3.2v0.9H1160.1z M1163.6,266.8v-0.5h-3.2v0.5
		H1163.6z M1160.4,267v0.5h3.2V267H1160.4z"/>
	<path d="M1170.5,267.4c-0.4-0.2-0.8-0.4-1.1-0.7v2h-0.3v-0.3h-2.5v0.3h-0.3v-2c-0.3,0.3-0.7,0.5-1.1,0.7l-0.2-0.3
		c0.4-0.2,0.8-0.5,1-0.7s0.5-0.5,0.7-0.7h-1.6v-0.3h1.8c0.1-0.2,0.2-0.4,0.3-0.6h-1.6v-0.3h1.7c0-0.1,0.1-0.3,0.2-0.6h-2.1v-0.3h2.1
		c0-0.1,0-0.2,0.1-0.5l0-0.1l0.3,0c0,0.3-0.1,0.5-0.1,0.6h2.4v0.3h-2.5c-0.1,0.2-0.1,0.4-0.1,0.6h2.4v0.3h-2.4
		c-0.1,0.2-0.1,0.4-0.3,0.6h3.2v0.3h-1.6c0.2,0.3,0.4,0.5,0.7,0.7c0.3,0.2,0.6,0.4,1,0.6L1170.5,267.4z M1166.6,267.2h2.5v-0.6h-2.5
		V267.2z M1166.6,267.5v0.6h2.5v-0.6H1166.6z M1167.2,265.7c-0.2,0.2-0.3,0.5-0.6,0.7h2.4c-0.2-0.2-0.4-0.4-0.5-0.7H1167.2z"/>
	<path d="M1176.7,264v0.3h-4.3v1.1c0,0.5,0,1-0.1,1.3c0,0.3-0.1,0.7-0.2,1s-0.3,0.6-0.5,1l-0.3-0.2c0.2-0.4,0.4-0.7,0.5-0.9
		c0.1-0.3,0.2-0.6,0.2-0.9s0.1-0.7,0.1-1.2V264h2.3l-0.4-0.8l0.3-0.1c0.2,0.4,0.3,0.6,0.5,0.9H1176.7z"/>
	<path d="M1179.1,267.1c-0.7,0.3-1.3,0.5-1.9,0.6l-0.1-0.3c0.3-0.1,0.5-0.1,0.9-0.2V265h-0.8v-0.3h0.8v-1.5h0.3v1.5h0.8v0.3h-0.8v2
		c0.3-0.1,0.6-0.2,0.7-0.3L1179.1,267.1z M1179.8,265.3h2.6c0,0.5,0,0.9-0.1,1.4c0,0.5-0.1,0.8-0.1,1.1c0,0.2-0.1,0.3-0.1,0.4
		c0,0.1-0.1,0.2-0.2,0.2c-0.1,0-0.2,0.1-0.4,0.1c-0.2,0-0.4,0-0.6,0l-0.1-0.3c0.3,0,0.5,0.1,0.6,0.1c0.1,0,0.2,0,0.3,0
		c0.1,0,0.1-0.1,0.2-0.2c0-0.1,0.1-0.2,0.1-0.3c0.1-0.4,0.1-1.1,0.2-2.1h-0.6c-0.1,0.5-0.2,0.9-0.4,1.2c-0.1,0.3-0.3,0.6-0.6,0.9
		c-0.2,0.3-0.5,0.6-0.9,0.8l-0.2-0.2c0.3-0.2,0.6-0.5,0.8-0.7s0.4-0.5,0.5-0.8c0.1-0.3,0.3-0.7,0.4-1.1h-0.7c-0.1,0.5-0.3,1-0.6,1.4
		c-0.3,0.4-0.7,0.8-1.2,1.2l-0.2-0.2c0.5-0.3,0.9-0.7,1.1-1.1c0.3-0.4,0.5-0.8,0.6-1.3h-0.9v-0.3l2.1-1.4h-2v-0.3h2.5v0.3
		L1179.8,265.3z"/>
</g>
<g>
	<path d="M1010.3,328.2c0.4,0.5,1,1,1.8,1.4l-0.2,0.3c-1.3-0.8-2.2-1.7-2.5-2.8c-0.2,0.5-0.4,1-0.9,1.5c-0.4,0.4-1,0.9-1.6,1.3
		l-0.2-0.3c0.8-0.5,1.4-1,1.8-1.5c0.4-0.5,0.7-1.1,0.7-1.8h-2.4V326h2.4v-1.6h0.3v1.6h2.4v0.3h-2.4c0,0,0,0.1,0,0.1
		C1009.6,327.1,1009.9,327.6,1010.3,328.2z"/>
	<path d="M1015,325.9c-0.2,0.4-0.5,0.8-0.7,1.1c0.2,0.1,0.4,0.3,0.6,0.4s0.4,0.3,0.5,0.4l-0.2,0.3c-0.2-0.2-0.5-0.4-1-0.8v2.6h-0.3
		v-2.5c-0.3,0.3-0.7,0.6-1.1,1l-0.2-0.3c0.5-0.3,0.8-0.7,1.2-1c0.3-0.3,0.6-0.7,0.8-1.1h-1.8v-0.3h1.1c0-0.2-0.1-0.4-0.2-0.5
		c-0.1-0.2-0.1-0.3-0.2-0.5l0.3-0.1c0.1,0.1,0.1,0.3,0.2,0.5c0.1,0.2,0.1,0.4,0.2,0.6h0.8V325.9z M1018,328.1l0,0.9
		c0,0.2,0,0.4-0.1,0.5s-0.1,0.2-0.2,0.2s-0.3,0.1-0.5,0.1c-0.1,0-0.2,0-0.4,0s-0.3,0-0.4,0c-0.2,0-0.3,0-0.4-0.1
		c-0.1,0-0.2-0.1-0.2-0.2c0-0.1-0.1-0.3-0.1-0.5v-4.5h0.3v4.4c0,0.1,0,0.3,0,0.3c0,0.1,0.1,0.1,0.1,0.2c0.1,0,0.1,0.1,0.3,0.1
		c0.1,0,0.2,0,0.3,0c0.1,0,0.2,0,0.3,0c0.1,0,0.2,0,0.3-0.1c0.1,0,0.1-0.1,0.1-0.2c0-0.1,0-0.2,0.1-0.3c0-0.1,0-0.1,0-0.2l0-0.7
		L1018,328.1z"/>
	<path d="M1021.6,328.7v0.8h2.4v0.3h-5.2v-0.3h2.4v-0.8h-1.9v-0.3h1.9v-0.6h-1.5v-1.3h3.3v1.3h-1.5v0.6h1.9v0.3H1021.6z
		 M1023.5,325.9h-4.2v0.9h-0.3v-1.2h2.2v-1.2h0.3v1.2h2.2v1.2h-0.3V325.9z M1020.3,325.6c-0.3-0.3-0.5-0.6-0.7-0.8l0.2-0.2
		c0.2,0.2,0.4,0.4,0.7,0.8L1020.3,325.6z M1022.8,326.8h-2.7v0.7h2.7V326.8z M1023.3,324.8c-0.2,0.3-0.5,0.5-0.7,0.8l-0.2-0.2
		c0.3-0.3,0.5-0.5,0.7-0.8L1023.3,324.8z"/>
</g>
<g>
	<path d="M1002,272.6c-0.2,0.3-0.4,0.6-0.7,0.8l-0.3-0.2c0.2-0.2,0.4-0.5,0.6-0.8c0.2-0.3,0.3-0.5,0.5-0.8l0.3,0.1
		c-0.1,0.2-0.2,0.3-0.3,0.5h1.6v0.3h-1.1l0.4,0.5l-0.2,0.2l-0.2-0.3l-0.2-0.3H1002z M1003.9,274.6v0.7h2.2c0,0.4-0.1,0.7-0.1,0.9
		c0,0.2-0.1,0.3-0.2,0.4s-0.2,0.1-0.4,0.1c-0.3,0-0.6,0-0.9,0l0-0.3c0.3,0,0.6,0.1,0.8,0.1c0.1,0,0.2,0,0.3-0.1
		c0.1-0.1,0.1-0.1,0.1-0.3c0-0.2,0.1-0.3,0.1-0.6h-1.9v1.7h-0.3v-1.6c-0.3,0.3-0.6,0.6-1,0.8s-0.8,0.5-1.4,0.7l-0.2-0.3
		c0.5-0.2,1-0.4,1.3-0.6c0.3-0.2,0.7-0.4,0.9-0.7h-1.8l0.2-1.2h1.9v-0.7h-1.9v-0.3h4.1v1.2H1003.9z M1003.6,274.6h-1.6l-0.1,0.7h1.7
		V274.6z M1006.4,272.3v0.3h-1.3l0.4,0.5l-0.2,0.2l-0.2-0.3l-0.3-0.3h-0.4c-0.1,0.2-0.3,0.5-0.5,0.7l-0.3-0.1
		c0.3-0.4,0.6-0.8,0.8-1.4l0.3,0.1c-0.1,0.2-0.2,0.4-0.2,0.5H1006.4z M1005.5,273.7h-1.6v0.7h1.6V273.7z"/>
	<path d="M1007.1,274.2h5.5v0.3h-5.5V274.2z"/>
	<path d="M1015.9,275.8l-1.2,0.2v0.7c0,0.2,0,0.4-0.1,0.5s-0.2,0.1-0.4,0.1c-0.2,0-0.4,0-0.6,0l-0.1-0.3c0.2,0,0.3,0,0.5,0.1
		c0.2,0,0.3,0,0.3-0.1c0,0,0.1-0.2,0.1-0.3V276c-0.3,0-0.6,0.1-1,0.1l-0.2,0l0-0.3c0.4,0,0.8-0.1,1.3-0.2v-0.3l0.7-0.7h-1
		c-0.3,0.3-0.6,0.5-1,0.8l-0.2-0.2c0.2-0.2,0.5-0.3,0.7-0.6h-0.4v-0.3h0.8c0.2-0.2,0.4-0.4,0.6-0.6h-1.6v-0.3h1.1v-0.7h-0.9v-0.3
		h0.9v-0.7h0.3v0.7h0.7v0.3h-0.7v0.7h0.4c0.3-0.4,0.6-0.9,0.8-1.4l0.2,0.1c-0.2,0.5-0.5,0.9-0.8,1.3h0.6v0.3h-0.8
		c-0.1,0.2-0.3,0.4-0.5,0.6h1.1v0.3l-0.9,0.8v0.2l0.3,0l0.8-0.1L1015.9,275.8z M1018.5,276.9l-0.2,0.3c-0.5-0.4-1-0.8-1.3-1.3
		c-0.3,0.4-0.8,0.9-1.4,1.3l-0.2-0.2c0.3-0.2,0.6-0.4,0.8-0.7c0.2-0.2,0.4-0.4,0.6-0.7c-0.3-0.5-0.5-1.1-0.6-1.7
		c-0.1,0.2-0.2,0.4-0.3,0.5l-0.2-0.2c0.2-0.3,0.4-0.7,0.6-1.2c0.2-0.5,0.3-0.9,0.4-1.3l0.3,0c-0.1,0.3-0.2,0.7-0.3,1h1.8v0.3h-0.5
		c-0.1,0.6-0.2,1-0.3,1.4c-0.1,0.4-0.3,0.8-0.5,1.1C1017.6,276.1,1018,276.5,1018.5,276.9z M1016.7,274.5c0.1,0.3,0.2,0.6,0.4,0.8
		c0.2-0.3,0.3-0.6,0.4-1s0.2-0.8,0.2-1.3h-1.1c0,0.1-0.1,0.2-0.1,0.4C1016.5,273.9,1016.6,274.2,1016.7,274.5z"/>
	<path d="M1024.4,275.3v0.3h-2.4v0.8c0,0.2,0,0.3-0.1,0.4c0,0.1-0.1,0.2-0.2,0.2s-0.2,0.1-0.4,0.1c-0.3,0-0.5,0-0.7,0l-0.1-0.3
		c0.3,0,0.5,0.1,0.7,0.1c0.1,0,0.2,0,0.3,0c0.1,0,0.1-0.1,0.1-0.1c0-0.1,0-0.2,0-0.3v-0.7h-2.5v-0.3h2.5V275l1.2-0.7h-2.8V274h3.3
		v0.3l-1.4,0.9v0.2H1024.4z M1019.6,273.2v0.8h-0.3v-1.1h3.4c0.1-0.2,0.2-0.4,0.4-0.6c0.1-0.2,0.3-0.4,0.4-0.6l0.3,0.1
		c-0.2,0.3-0.4,0.7-0.7,1h1.2v1.1h-0.3v-0.8H1019.6z M1020.4,272.9c-0.3-0.4-0.5-0.8-0.6-0.9l0.3-0.1c0.1,0.1,0.1,0.2,0.2,0.3
		l0.4,0.6L1020.4,272.9z M1021.8,272.8l-0.5-1l0.3-0.1c0.1,0.1,0.1,0.2,0.2,0.3c0.1,0.1,0.1,0.2,0.2,0.3c0,0.1,0.1,0.1,0.1,0.2
		c0,0.1,0.1,0.1,0.1,0.2L1021.8,272.8z"/>
	<path d="M1026.7,274.7l-0.5-0.5v3h-0.3v-3.2c-0.2,0.7-0.5,1.3-0.8,1.7l-0.2-0.3c0.2-0.3,0.4-0.6,0.5-1.1c0.2-0.4,0.3-0.8,0.4-1.2
		h-0.8V273h0.8v-1.2h0.3v1.2h0.7v0.3h-0.7v0.6l0.1,0.1c0.3,0.3,0.5,0.4,0.6,0.5L1026.7,274.7z M1028.4,274.7
		c-0.1,0.1-0.1,0.3-0.2,0.4h2.3v0.3h-0.7c-0.1,0.2-0.2,0.4-0.3,0.6c-0.1,0.2-0.2,0.3-0.4,0.4c0.3,0.1,0.7,0.3,1.1,0.4l0.3,0.1
		l-0.1,0.3l-1.5-0.6c-0.2,0.1-0.5,0.2-0.8,0.4s-0.7,0.2-1.2,0.3l-0.1-0.3c0.4-0.1,0.8-0.2,1.1-0.2c0.3-0.1,0.5-0.2,0.7-0.3
		c-0.5-0.2-0.9-0.4-1.2-0.5c0.1-0.2,0.3-0.4,0.4-0.6h-0.9v-0.3h1.1c0.1-0.2,0.2-0.3,0.2-0.5L1028.4,274.7z M1026.9,274.5
		c0.6-0.3,1.1-0.7,1.4-1.1h-1.2v-0.3h1.4v-1.4h0.3v1.4h1.5v0.3h-1.3c0.3,0.4,0.8,0.8,1.4,1.1l-0.2,0.2c-0.3-0.2-0.6-0.4-0.9-0.6
		c-0.2-0.2-0.5-0.4-0.6-0.7v1.1h-0.3v-1.1c-0.2,0.3-0.4,0.5-0.6,0.7c-0.2,0.2-0.5,0.4-0.8,0.6L1026.9,274.5z M1027.9,273
		c-0.2-0.2-0.4-0.5-0.7-0.8l0.2-0.2c0,0,0,0.1,0.1,0.1c0.1,0.1,0.1,0.2,0.3,0.3c0.1,0.2,0.2,0.3,0.3,0.4L1027.9,273z M1028,275.4
		c-0.1,0.1-0.2,0.3-0.3,0.5c0.4,0.2,0.8,0.3,1,0.4c0.1-0.1,0.3-0.2,0.4-0.4c0.1-0.1,0.2-0.3,0.3-0.5H1028z M1030.2,272.1
		c-0.1,0.1-0.2,0.3-0.4,0.5c-0.1,0.2-0.3,0.3-0.4,0.4l-0.2-0.2c0.1-0.1,0.2-0.2,0.4-0.4c0.1-0.2,0.3-0.3,0.4-0.4L1030.2,272.1z"/>
</g>
<g>
	<path d="M778.5,330.3c-0.1,0.3-0.3,0.6-0.4,0.9v3.1h-0.3v-2.6c-0.3,0.4-0.5,0.7-0.8,0.9l-0.1-0.3c0.3-0.3,0.5-0.6,0.8-1
		c0.2-0.4,0.4-0.8,0.6-1.2L778.5,330.3z M778.9,330.3h-0.3v-0.5h-1.7v-0.3h1.7v-0.6h0.3v0.6h1.5v-0.6h0.3v0.6h1.6v0.3h-1.6v0.5h-0.3
		v-0.5h-1.5V330.3z M782.4,330.7v0.3h-0.7v2.6c0,0.2,0,0.3-0.1,0.4s-0.1,0.2-0.2,0.2c-0.1,0-0.2,0.1-0.4,0.1c-0.3,0-0.5,0-0.8,0
		l-0.1-0.3c0.3,0,0.5,0,0.7,0c0.1,0,0.2,0,0.3,0s0.1-0.1,0.1-0.1c0-0.1,0-0.2,0-0.3V331h-2.8v-0.3H782.4z M778.8,331.7h1.7v1.7h-1.7
		V331.7z M779,333h1.2v-1.1H779V333z"/>
	<path d="M784.7,330.7c-0.1,0.3-0.3,0.5-0.4,0.7v3H784v-2.5c-0.3,0.4-0.6,0.7-1,1l-0.1-0.3c0.3-0.3,0.6-0.6,0.9-0.9
		c0.2-0.3,0.5-0.7,0.7-1.1L784.7,330.7z M786.7,328.9v0.8h1.6v0.3h-1.6v0.5h-0.3v-0.5h-1.5v0.4h-0.3v-0.4H783v-0.3h1.5v-0.7h0.3v0.7
		h1.5v-0.8H786.7z M787.9,333.1c0-0.2,0-0.3,0-0.3l0.3,0.1l0,0.7c0,0.2,0,0.4-0.1,0.5c0,0.1-0.1,0.2-0.2,0.2c-0.1,0-0.3,0.1-0.5,0.1
		c-0.2,0-0.3,0-0.5,0c-0.2,0-0.3,0-0.5,0c-0.2,0-0.4-0.1-0.5-0.2c-0.1-0.1-0.1-0.3-0.1-0.6v-0.8c-0.3,0.2-0.7,0.4-1.1,0.5l-0.1-0.3
		c0.4-0.2,0.8-0.4,1.2-0.6v-1.7h0.3v1.5c0.7-0.4,1.3-0.8,1.8-1.3l0.2,0.3c-0.5,0.5-1.2,1-1.9,1.4v0.9c0,0.2,0,0.3,0.1,0.4
		c0.1,0.1,0.2,0.1,0.3,0.1c0.1,0,0.3,0,0.4,0c0.1,0,0.3,0,0.4,0c0.1,0,0.2,0,0.3-0.1c0.1,0,0.1-0.1,0.2-0.2c0-0.1,0.1-0.2,0.1-0.3
		L787.9,333.1z"/>
	<path d="M790,331.7c-0.3-0.2-0.4-0.3-0.4-0.3c-0.4-0.3-0.7-0.5-0.7-0.6l0.2-0.3c0.4,0.3,0.8,0.6,1.2,0.9L790,331.7z M789.1,334.2
		c0.4-1,0.7-1.7,0.9-2.1l0.3,0.1l-0.9,2.1L789.1,334.2z M789.4,329.2c0.2,0.2,0.6,0.4,1.1,0.9l-0.2,0.3c-0.3-0.2-0.6-0.5-1.1-0.9
		L789.4,329.2z M794.3,332.8c0,0.4,0,0.6,0,0.8c0,0.2,0,0.3-0.1,0.4c0,0.1-0.1,0.2-0.2,0.2c-0.1,0-0.3,0.1-0.5,0.1
		c-0.3,0-0.6,0-0.9,0c-0.3,0-0.6,0-0.9,0c-0.2,0-0.4-0.1-0.5-0.1c-0.1-0.1-0.2-0.1-0.2-0.3c0-0.1-0.1-0.3-0.1-0.5v-2.1l-0.5,0.2
		l-0.1-0.3l0.6-0.2v-1.5h0.3v1.4l1-0.3V329h0.3v1.5l1.4-0.5c0,0.3,0,0.7,0,1.1c0,0.4,0,0.7-0.1,1c0,0.2,0,0.3-0.1,0.4
		s-0.1,0.1-0.2,0.2c-0.1,0-0.2,0.1-0.3,0.1c-0.2,0-0.3,0-0.4,0l-0.1-0.3c0.1,0,0.3,0,0.4,0c0.1,0,0.2,0,0.3-0.1s0.1-0.2,0.1-0.4
		c0.1-0.4,0.1-0.9,0.1-1.5l-1.1,0.4v2.5h-0.3v-2.4l-1,0.3v2.1c0,0.2,0,0.3,0,0.4c0,0.1,0.1,0.1,0.2,0.2s0.2,0.1,0.4,0.1
		c0.2,0,0.5,0,0.8,0c0.3,0,0.5,0,0.8,0c0.2,0,0.3,0,0.4-0.1c0.1,0,0.1-0.1,0.2-0.2c0-0.1,0-0.2,0.1-0.3c0-0.4,0-0.6,0-0.7
		L794.3,332.8z"/>
</g>
<g>
	<path d="M163.4,449.4c0.4,0.5,1,1,1.8,1.4l-0.2,0.3c-1.3-0.8-2.2-1.7-2.5-2.8c-0.2,0.5-0.4,1-0.9,1.5s-1,0.9-1.6,1.3l-0.2-0.3
		c0.8-0.5,1.4-1,1.8-1.5c0.4-0.5,0.7-1.1,0.7-1.8h-2.4v-0.3h2.4v-1.6h0.3v1.6h2.4v0.3h-2.4c0,0,0,0.1,0,0.1
		C162.7,448.3,163,448.9,163.4,449.4z"/>
	<path d="M167.3,448.4l-0.5,0.2v1.8c0,0.2,0,0.4-0.1,0.5s-0.2,0.1-0.4,0.1c-0.1,0-0.3,0-0.4,0l-0.1-0.3c0.2,0,0.3,0,0.4,0
		c0.1,0,0.2,0,0.2-0.1c0-0.1,0.1-0.2,0.1-0.3v-1.6l-0.3,0.1c-0.2,0.1-0.3,0.1-0.5,0.2l-0.1-0.3l0.4-0.2c0.2-0.1,0.3-0.1,0.4-0.1
		v-1.3h-0.7v-0.3h0.7v-1.1h0.3v1.1h0.6v0.3h-0.6v1.2l0.5-0.2L167.3,448.4z M169.7,449.6c0.2,0.2,0.4,0.4,0.7,0.6s0.6,0.3,0.9,0.5
		l-0.2,0.3c-0.4-0.2-0.7-0.4-1-0.6s-0.5-0.5-0.7-0.7v1.5h-0.3v-1.5c-0.2,0.3-0.5,0.5-0.7,0.7s-0.6,0.4-1,0.6l-0.2-0.3
		c0.4-0.2,0.7-0.3,1-0.5c0.3-0.2,0.5-0.4,0.7-0.6h-1.5v-0.3h1.7v-0.4h0.3v0.4h1.8v0.3H169.7z M167.5,447.5h1.4v1.2h-1.4V447.5z
		 M167.8,448.5h0.9v-0.7h-0.9V448.5z M167.9,445.9h2.6v1.2h-2.6V445.9z M168.2,446.9h2v-0.7h-2V446.9z M170.9,448.7h-1.4v-1.2h1.4
		V448.7z M170.6,447.8h-0.9v0.7h0.9V447.8z"/>
	<path d="M173.6,449.5c-0.7,0.3-1.3,0.5-1.9,0.6l-0.1-0.3c0.3-0.1,0.5-0.1,0.9-0.2v-2.1h-0.8v-0.3h0.8v-1.5h0.3v1.5h0.8v0.3h-0.8v2
		c0.3-0.1,0.6-0.2,0.7-0.3L173.6,449.5z M174.3,447.8h2.6c0,0.5,0,0.9-0.1,1.4c0,0.5-0.1,0.8-0.1,1.1c0,0.2-0.1,0.3-0.1,0.4
		c-0.1,0.1-0.1,0.2-0.2,0.2c-0.1,0-0.2,0.1-0.4,0.1c-0.2,0-0.4,0-0.6,0l-0.1-0.3c0.3,0,0.5,0.1,0.6,0.1c0.1,0,0.2,0,0.3,0
		c0.1,0,0.1-0.1,0.2-0.1c0-0.1,0.1-0.2,0.1-0.3c0.1-0.4,0.1-1.1,0.2-2.1H176c-0.1,0.5-0.2,0.9-0.4,1.2s-0.3,0.6-0.6,0.9
		s-0.5,0.6-0.9,0.8l-0.2-0.2c0.3-0.2,0.6-0.5,0.8-0.7c0.2-0.3,0.4-0.5,0.5-0.8c0.1-0.3,0.3-0.7,0.4-1.1H175c-0.1,0.5-0.3,1-0.6,1.4
		s-0.7,0.8-1.2,1.2l-0.2-0.2c0.5-0.3,0.9-0.7,1.1-1.1c0.3-0.4,0.5-0.8,0.6-1.3h-0.9v-0.3l2.1-1.4h-2v-0.3h2.5v0.3L174.3,447.8z"/>
</g>
<g>
	<path d="M68.7,467v1.7h2.5v0.3h-5.4v-0.3h2.5V467h-2.1v-0.3h2.1v-1.5H66v-0.3h5v0.3h-2.3v1.5h2v0.3H68.7z M68.6,464.9
		c-0.2-0.3-0.4-0.6-0.6-1l0.3-0.2c0.2,0.2,0.4,0.6,0.6,1L68.6,464.9z"/>
	<path d="M76,466.7h-1v0.6h1.6v1c0,0.2,0,0.4-0.1,0.4s-0.2,0.1-0.4,0.1c-0.2,0-0.4,0-0.6,0l-0.1-0.3c0.2,0,0.4,0,0.6,0
		c0.1,0,0.2,0,0.2-0.1c0-0.1,0.1-0.1,0.1-0.3v-0.7H75v1.8h-0.3v-1.8h-1.2v1.4h-0.3v-1.6h1.5v-0.6h-1v-0.9h-1.1v0.6
		c0,0.5,0,0.9-0.1,1.2c0,0.3-0.1,0.6-0.2,0.9s-0.2,0.5-0.4,0.9l-0.3-0.1c0.2-0.3,0.3-0.6,0.4-0.8c0.1-0.2,0.1-0.5,0.2-0.8
		c0-0.3,0.1-0.7,0.1-1.2v-1.8h2.3c0-0.1-0.1-0.1-0.1-0.2s-0.1-0.2-0.1-0.3l-0.1-0.1l0.3-0.1c0.2,0.4,0.3,0.6,0.4,0.7h2v0.3h-1v0.7
		h1.1v0.3H76V466.7z M72.7,464.8v0.7h1.1v-0.7H72.7z M74,465.5h1.7v-0.7H74V465.5z M75.7,465.8H74v0.6h1.7V465.8z"/>
	<path d="M81.6,464.5c0.2,0.2,0.4,0.5,0.8,0.9c0.3,0.4,0.6,0.7,0.8,0.9l-0.2,0.2l-0.4-0.5c-0.8,0-2.1,0.1-3.9,0.3
		c-0.2,0-0.3,0-0.4,0L78,466c0.1,0,0.2,0,0.3-0.1c0.1,0,0.1-0.1,0.2-0.1c0.2-0.2,0.5-0.5,0.9-0.9s0.6-0.8,0.8-1.1l0.3,0.2
		c-0.2,0.3-0.5,0.7-0.8,1.1c-0.3,0.4-0.6,0.7-0.8,0.9c0.4,0,1.2-0.1,2.4-0.2l1-0.1c-0.3-0.4-0.6-0.7-0.8-1L81.6,464.5z M78.9,469.3
		h-0.3v-2.4h3.9v2.4h-0.3V469h-3.2V469.3z M82.1,468.7v-1.5h-3.2v1.5H82.1z"/>
</g>
<g>
	<path d="M42.7,394.1c-0.2-0.3-0.4-0.7-0.6-1.1c-0.3,0.5-0.6,1.1-1,1.7l-0.3-0.2c0.5-0.6,0.9-1.2,1.1-1.8c-0.3-0.7-0.7-1.2-0.9-1.7
		l0.3-0.2c0.2,0.4,0.5,0.9,0.8,1.5c0.2-0.5,0.3-1.2,0.4-1.9H41v-0.3h1.9v0.3c-0.1,0.9-0.3,1.6-0.6,2.3c0.2,0.4,0.4,0.8,0.7,1.3
		L42.7,394.1z M46.3,393.5c0,0.1,0,0.3,0,0.6c0,0.2,0,0.3-0.1,0.4c0,0.1-0.1,0.1-0.2,0.2c-0.1,0-0.2,0.1-0.4,0.1c-0.1,0-0.2,0-0.3,0
		c-0.1,0-0.2,0-0.3,0c-0.1,0-0.2,0-0.3-0.1c-0.1,0-0.1-0.1-0.2-0.2s0-0.2,0-0.4v-1.4c-0.1,0.5-0.3,0.9-0.6,1.2s-0.7,0.7-1.2,1
		l-0.2-0.3c0.5-0.3,0.8-0.5,1.1-0.8c0.3-0.3,0.4-0.6,0.5-0.9s0.2-0.7,0.2-1.2c0-0.2,0-0.4,0-0.7s0-0.5,0-0.7h0.3c0,0.2,0,0.4,0,0.7
		c0,0.3,0,0.5,0,0.7c0,0.3,0,0.6-0.1,0.9h0.3v1.3c0,0.1,0,0.2,0,0.2c0,0.1,0.1,0.1,0.1,0.1c0.1,0,0.1,0,0.2,0c0,0,0.1,0,0.2,0
		c0.1,0,0.1,0,0.2,0c0.1,0,0.2,0,0.2,0c0,0,0.1-0.1,0.1-0.1c0,0,0-0.1,0-0.2l0-0.2c0-0.2,0-0.3,0-0.4L46.3,393.5z M45.6,390.1h-2
		v3.1h-0.3v-3.4h2.6v3.4h-0.3V390.1z"/>
	<path d="M49.4,393.6c-0.2-0.3-0.5-0.6-0.9-1c-0.1,0.4-0.2,0.8-0.5,1.2c-0.2,0.4-0.5,0.7-0.9,1.1l-0.3-0.2c0.3-0.3,0.6-0.6,0.8-0.9
		c0.2-0.3,0.3-0.6,0.4-0.9c0.1-0.3,0.2-0.7,0.2-1c0,0,0-0.1,0-0.2l0-0.3h0.3c0,0.2,0,0.3,0,0.5c0,0.1,0,0.2,0,0.3l0.2,0.3l0.8,0.9
		L49.4,393.6z M48.6,391c-0.4,0.3-0.9,0.6-1.5,1l-0.2-0.3c0.6-0.3,1.1-0.6,1.5-1c0.4-0.3,0.8-0.7,1-1.1h0.3c0.3,0.4,0.6,0.8,1,1.1
		s0.9,0.7,1.5,0.9l-0.2,0.3c-0.6-0.3-1.1-0.6-1.5-0.9s-0.8-0.7-1.1-1.1C49.4,390.3,49,390.6,48.6,391z M51.2,393.5
		c0.3,0.4,0.7,0.8,1.2,1.1l-0.2,0.3c-0.4-0.3-0.8-0.6-1-1s-0.5-0.7-0.6-1.1c-0.1,0.4-0.3,0.8-0.6,1.1c-0.3,0.3-0.6,0.7-1,1l-0.3-0.2
		c0.4-0.3,0.7-0.6,0.9-0.8c0.2-0.3,0.4-0.6,0.5-0.9c0.1-0.3,0.2-0.7,0.2-1.1c0-0.3,0-0.4,0-0.5h0.3l0,0.5l0,0.1
		C50.8,392.6,50.9,393,51.2,393.5z"/>
	<path d="M57.2,392.3h-1v0.6h1.6v1c0,0.2,0,0.4-0.1,0.4s-0.2,0.1-0.4,0.1c-0.2,0-0.4,0-0.6,0l-0.1-0.3c0.2,0,0.4,0,0.6,0
		c0.1,0,0.2,0,0.2-0.1c0-0.1,0.1-0.1,0.1-0.3v-0.7h-1.3v1.8h-0.3v-1.8h-1.2v1.4h-0.3v-1.6h1.5v-0.6h-1v-0.9h-1.1v0.6
		c0,0.5,0,0.9-0.1,1.2c0,0.3-0.1,0.6-0.2,0.9s-0.2,0.5-0.4,0.9l-0.3-0.1c0.2-0.3,0.3-0.6,0.4-0.8c0.1-0.2,0.1-0.5,0.2-0.8
		c0-0.3,0.1-0.7,0.1-1.2v-1.8h2.3c0-0.1-0.1-0.1-0.1-0.2s-0.1-0.2-0.1-0.3l-0.1-0.1l0.3-0.1c0.2,0.4,0.3,0.6,0.4,0.7h2v0.3h-1v0.7
		h1.1v0.3h-1.1V392.3z M53.8,390.4v0.7h1.1v-0.7H53.8z M55.2,391.1h1.7v-0.7h-1.7V391.1z M56.9,391.4h-1.7v0.6h1.7V391.4z"/>
</g>
<g>
	<path d="M90.5,537.5c-0.2-0.3-0.4-0.7-0.6-1.1c-0.3,0.5-0.6,1.1-1,1.7l-0.3-0.2c0.5-0.6,0.9-1.2,1.1-1.8c-0.3-0.7-0.7-1.2-0.9-1.7
		l0.3-0.2c0.2,0.4,0.5,0.9,0.8,1.5c0.2-0.5,0.3-1.2,0.4-1.9h-1.6v-0.3h1.9v0.3c-0.1,0.9-0.3,1.6-0.6,2.3c0.2,0.4,0.4,0.8,0.7,1.3
		L90.5,537.5z M94.1,536.9c0,0.1,0,0.3,0,0.6c0,0.2,0,0.3-0.1,0.4c0,0.1-0.1,0.1-0.2,0.2c-0.1,0-0.2,0.1-0.4,0.1c-0.1,0-0.2,0-0.3,0
		c-0.1,0-0.2,0-0.3,0c-0.1,0-0.2,0-0.3-0.1c-0.1,0-0.1-0.1-0.2-0.2s0-0.2,0-0.4v-1.4c-0.1,0.5-0.3,0.9-0.6,1.2s-0.7,0.7-1.2,1
		l-0.2-0.3c0.5-0.3,0.8-0.5,1.1-0.8c0.3-0.3,0.4-0.6,0.5-0.9s0.2-0.7,0.2-1.2c0-0.2,0-0.4,0-0.7s0-0.5,0-0.7h0.3c0,0.2,0,0.4,0,0.7
		c0,0.3,0,0.5,0,0.7c0,0.3,0,0.6-0.1,0.9h0.3v1.3c0,0.1,0,0.2,0,0.2c0,0.1,0.1,0.1,0.1,0.1c0.1,0,0.1,0,0.2,0c0,0,0.1,0,0.2,0
		c0.1,0,0.1,0,0.2,0c0.1,0,0.2,0,0.2,0c0,0,0.1-0.1,0.1-0.1c0,0,0-0.1,0-0.2l0-0.2c0-0.2,0-0.3,0-0.4L94.1,536.9z M93.4,533.5h-2
		v3.1h-0.3v-3.4h2.6v3.4h-0.3V533.5z"/>
	<path d="M97.2,537c-0.2-0.3-0.5-0.6-0.9-1c-0.1,0.4-0.2,0.8-0.5,1.2c-0.2,0.4-0.5,0.7-0.9,1.1l-0.3-0.2c0.3-0.3,0.6-0.6,0.8-0.9
		c0.2-0.3,0.3-0.6,0.4-0.9c0.1-0.3,0.2-0.7,0.2-1c0,0,0-0.1,0-0.2l0-0.3h0.3c0,0.2,0,0.3,0,0.5c0,0.1,0,0.2,0,0.3l0.2,0.3l0.8,0.9
		L97.2,537z M96.4,534.3c-0.4,0.3-0.9,0.6-1.5,1l-0.2-0.3c0.6-0.3,1.1-0.6,1.5-1c0.4-0.3,0.8-0.7,1-1.1h0.3c0.3,0.4,0.6,0.8,1,1.1
		s0.9,0.7,1.5,0.9l-0.2,0.3c-0.6-0.3-1.1-0.6-1.5-0.9s-0.8-0.7-1.1-1.1C97.2,533.7,96.8,534,96.4,534.3z M99,536.8
		c0.3,0.4,0.7,0.8,1.2,1.1l-0.2,0.3c-0.4-0.3-0.8-0.6-1-1s-0.5-0.7-0.6-1.1c-0.1,0.4-0.3,0.8-0.6,1.1c-0.3,0.3-0.6,0.7-1,1l-0.3-0.2
		c0.4-0.3,0.7-0.6,0.9-0.8c0.2-0.3,0.4-0.6,0.5-0.9c0.1-0.3,0.2-0.7,0.2-1.1c0-0.3,0-0.4,0-0.5h0.3l0,0.5l0,0.1
		C98.6,535.9,98.7,536.4,99,536.8z"/>
	<path d="M104.9,535.7h-1v0.6h1.6v1c0,0.2,0,0.4-0.1,0.4s-0.2,0.1-0.4,0.1c-0.2,0-0.4,0-0.6,0l-0.1-0.3c0.2,0,0.4,0,0.6,0
		c0.1,0,0.2,0,0.2-0.1c0-0.1,0.1-0.1,0.1-0.3v-0.7H104v1.8h-0.3v-1.8h-1.2v1.4h-0.3v-1.6h1.5v-0.6h-1v-0.9h-1.1v0.6
		c0,0.5,0,0.9-0.1,1.2c0,0.3-0.1,0.6-0.2,0.9s-0.2,0.5-0.4,0.9l-0.3-0.1c0.2-0.3,0.3-0.6,0.4-0.8c0.1-0.2,0.1-0.5,0.2-0.8
		c0-0.3,0.1-0.7,0.1-1.2v-1.8h2.3c0-0.1-0.1-0.1-0.1-0.2s-0.1-0.2-0.1-0.3l-0.1-0.1l0.3-0.1c0.2,0.4,0.3,0.6,0.4,0.7h2v0.3h-1v0.7
		h1.1v0.3h-1.1V535.7z M101.6,533.8v0.7h1.1v-0.7H101.6z M103,534.5h1.7v-0.7H103V534.5z M104.6,534.8H103v0.6h1.7V534.8z"/>
</g>
<g>
	<path d="M171.6,556.6c0.1,0.1,0.3,0.2,0.6,0.4c0.2,0.2,0.4,0.3,0.6,0.5l-0.2,0.3c-0.1-0.1-0.3-0.3-0.6-0.5
		c-0.2-0.2-0.4-0.3-0.6-0.4L171.6,556.6z M171.6,560.3c0.3-0.7,0.6-1.3,0.9-2l0.3,0.1c-0.3,0.7-0.6,1.3-0.9,2L171.6,560.3z
		 M172,555.2c0.1,0.1,0.3,0.2,0.6,0.4c0.2,0.2,0.4,0.3,0.6,0.4l-0.2,0.3c-0.2-0.1-0.4-0.3-0.6-0.5c-0.2-0.2-0.4-0.3-0.5-0.4
		L172,555.2z M172.7,560.2c0.6-0.2,1.1-0.4,1.5-0.7c0.4-0.2,0.8-0.5,1.1-0.8c0.3-0.3,0.6-0.6,0.8-1l0.3,0.2
		c-0.3,0.4-0.6,0.8-0.9,1.1s-0.7,0.6-1.1,0.8c-0.4,0.2-0.9,0.5-1.5,0.7L172.7,560.2z M173,558.1c0.2-0.3,0.4-0.7,0.5-1.1
		c0.2-0.4,0.3-0.8,0.4-1.2l0.3,0.1c-0.1,0.4-0.2,0.8-0.4,1.2c-0.2,0.4-0.3,0.8-0.5,1.2L173,558.1z M174.7,555h0.3v3.6h-0.3V555z
		 M175.8,555.8c0.1,0.2,0.3,0.5,0.5,0.8s0.4,0.7,0.5,1l-0.3,0.2c-0.1-0.3-0.3-0.6-0.5-1s-0.3-0.7-0.5-0.9L175.8,555.8z"/>
	<path d="M178.5,559.2c0.4-0.2,0.7-0.3,0.7-0.3l0.1,0.3c-0.1,0.1-0.2,0.1-0.3,0.1c-0.8,0.3-1.4,0.5-1.6,0.6l-0.1-0.3
		c0.1,0,0.3-0.1,0.7-0.3c0,0,0.1,0,0.1,0v-2.3h-0.8v-0.3h0.8v-1.6h0.3v1.6h0.7v0.3h-0.7V559.2z M182.8,558.9c0,0.1,0,0.3,0,0.5
		c0,0.1,0,0.2,0,0.3c0,0.2,0,0.3-0.1,0.4s-0.1,0.2-0.2,0.2c-0.1,0-0.3,0.1-0.5,0.1c-0.3,0-0.5,0-0.8,0c-0.3,0-0.5,0-0.8,0
		c-0.2,0-0.3,0-0.5-0.1c-0.1,0-0.2-0.1-0.2-0.2c0-0.1-0.1-0.3-0.1-0.5v-2.1l-0.6,0.2l-0.1-0.3l0.7-0.2v-1.6h0.3v1.5l0.9-0.3v-1.7
		h0.3v1.6l1.4-0.5c0,0.3,0,0.7,0,1.1c0,0.4,0,0.7-0.1,1c0,0.2-0.1,0.3-0.1,0.4s-0.1,0.1-0.2,0.2s-0.2,0-0.4,0c-0.1,0-0.2,0-0.3,0
		l-0.1-0.3c0.1,0,0.2,0,0.3,0c0.1,0,0.2,0,0.2,0c0,0,0.1-0.1,0.1-0.1c0-0.1,0-0.1,0.1-0.3c0.1-0.4,0.1-0.9,0.1-1.5l-1,0.4v2.4h-0.3
		v-2.3l-0.9,0.3v2.1c0,0.2,0,0.3,0,0.4s0.1,0.1,0.1,0.2c0.1,0,0.2,0.1,0.3,0.1c0.2,0,0.5,0,0.7,0c0.2,0,0.5,0,0.7,0
		c0.2,0,0.3,0,0.4-0.1s0.1-0.1,0.2-0.1c0-0.1,0.1-0.2,0.1-0.3c0-0.2,0-0.5,0-0.7L182.8,558.9z"/>
</g>
<g>
	<path d="M94.7,287.8h-2.5c-0.1,0.3-0.1,0.6-0.2,1H94v3.8h-0.3v-0.4h-3.3v0.4h-0.3v-3.8h1.5c0.1-0.3,0.2-0.6,0.3-1h-2.5v-0.3h5.4
		V287.8z M90.4,290.4h3.3v-1.2h-3.3V290.4z M90.4,290.7v1.2h3.3v-1.2H90.4z"/>
	<path d="M98.2,291.5h2.5v0.3h-2.5v0.9h-0.3v-0.9h-2.5v-0.3h2.5v-0.6h-1.8v-2.1h3.9v2.1h-1.8V291.5z M97.3,288.6H97v-0.5h-1.5v-0.3
		H97v-0.6h0.3v0.6h1.5v-0.6h0.3v0.6h1.6v0.3h-1.6v0.5h-0.3v-0.5h-1.5V288.6z M99.7,289.7v-0.6h-3.2v0.6H99.7z M99.7,289.9h-3.2v0.6
		h3.2V289.9z"/>
	<path d="M101.7,292.7v-5.2h4.7v5.2h-0.3v-0.3H102v0.3H101.7z M102,287.8v4.2h4.1v-4.2H102z M105.8,289.9h-1.2v1.1
		c0,0.1,0,0.2,0,0.3c0,0,0.1,0.1,0.2,0.1c0,0,0.1,0,0.2,0c0.1,0,0.2,0,0.3,0s0.1,0,0.1-0.1c0-0.1,0-0.1,0-0.3c0-0.1,0-0.2,0-0.3
		l0-0.2l0.3,0l0,0.5c0,0.2,0,0.3-0.1,0.4c-0.1,0.1-0.2,0.1-0.4,0.1c-0.1,0-0.1,0-0.2,0s-0.2,0-0.2,0c-0.1,0-0.2-0.1-0.3-0.1
		c-0.1-0.1-0.1-0.2-0.1-0.4v-1.2h-0.8c0,0.5-0.1,0.8-0.3,1.1c-0.2,0.3-0.4,0.6-0.8,0.8l-0.2-0.3c0.3-0.2,0.6-0.4,0.7-0.7
		c0.1-0.3,0.2-0.6,0.2-1h-0.9v-0.3h3.5V289.9z M102.7,288.5h2.8v0.3h-2.8V288.5z"/>
</g>
<g>
	<path d="M590.3,329.9v0.3h-2.5v1c0,0.3,0,0.5-0.1,0.6c-0.1,0.1-0.2,0.2-0.5,0.2c-0.2,0-0.5,0-0.8,0l-0.1-0.3c0.3,0,0.5,0.1,0.7,0.1
		c0.1,0,0.2,0,0.3-0.1c0-0.1,0.1-0.2,0.1-0.4v-0.9h-2.6v-0.3h2.6v-1.1h-2.1v-0.3h2.1v-1.2c-0.8,0.1-1.5,0.1-2.2,0.1l0-0.3
		c0.6,0,1.4-0.1,2.3-0.1c0.9-0.1,1.7-0.2,2.3-0.2l0,0.3c-0.5,0.1-1.2,0.1-2,0.2v1.2h2v0.3h-2v1.1H590.3z"/>
	<path d="M590.9,327.5v-0.3h1.8v0.3H592v1.4h0.7v0.3H592v1.7l0.6-0.2l0,0.3l-0.7,0.2c-0.2,0-0.3,0.1-0.5,0.1c-0.2,0-0.4,0.1-0.5,0.1
		l-0.1-0.3c0.1,0,0.3-0.1,0.7-0.2l0.2-0.1v-1.8H591v-0.3h0.7v-1.4H590.9z M596.4,331.1l-0.2,0.3c-0.4-0.4-0.7-0.8-1-1.2
		c-0.3-0.4-0.5-0.9-0.6-1.4v2.5c0,0.2,0,0.4-0.1,0.5c-0.1,0.1-0.2,0.1-0.4,0.1c-0.2,0-0.4,0-0.6,0l-0.1-0.3c0.2,0,0.4,0,0.6,0
		c0.1,0,0.2,0,0.3-0.1c0.1-0.1,0.1-0.2,0.1-0.3v-1.4c-0.4,0.3-0.8,0.7-1.3,1.2l-0.2-0.3c0.6-0.5,1.1-0.9,1.5-1.3v-1.5h-1.4v-0.3h1.4
		v-1.1h0.3v1.1h1.6v0.3h-1.6v0c0.1,0.5,0.3,1,0.5,1.4c0.1-0.1,0.3-0.3,0.5-0.5s0.3-0.4,0.4-0.5l0.2,0.2c-0.1,0.2-0.3,0.3-0.5,0.5
		c-0.2,0.2-0.4,0.4-0.5,0.5C595.5,330.2,595.9,330.7,596.4,331.1z M593.1,328.3c0.1,0.1,0.2,0.3,0.4,0.5c0.2,0.2,0.3,0.4,0.4,0.5
		l-0.2,0.2c-0.1-0.1-0.2-0.3-0.4-0.5c-0.2-0.2-0.3-0.4-0.4-0.5L593.1,328.3z M595.7,327.5c-0.1-0.1-0.2-0.2-0.3-0.3
		s-0.3-0.3-0.4-0.4l0.2-0.2c0.1,0.1,0.3,0.2,0.4,0.4c0.1,0.1,0.3,0.3,0.4,0.4L595.7,327.5z"/>
	<path d="M597.9,326.6c-0.1,0.3-0.1,0.6-0.2,0.9h1v0.3l-0.3,0.9l-0.2-0.1l0.3-0.9h-0.8c-0.1,0.5-0.3,0.9-0.5,1.4l-0.2-0.2
		c0.2-0.4,0.3-0.8,0.5-1.2s0.2-0.8,0.3-1.3L597.9,326.6z M597.9,331.2l0.7-0.6l0.1,0.3l-0.3,0.2l-0.6,0.5l-0.2,0.2l-0.2-0.2
		c0.1-0.1,0.1-0.1,0.1-0.1s0-0.1,0-0.1v-2.7h0.3V331.2z M602.2,327.3v0.9h-0.3v-0.6h-2.6v0.6h-0.3v-0.9h1.5
		c-0.1-0.3-0.3-0.5-0.3-0.7l0.3-0.1c0.1,0.3,0.3,0.5,0.4,0.8H602.2z M601.8,329.6h-2.2v0.6h2.4v1.7h-0.3v-0.3h-2.1v0.3h-0.3v-3.8
		h2.5V329.6z M601.5,329.3v-0.8h-1.9v0.8H601.5z M601.6,331.4v-0.9h-2.1v0.9H601.6z"/>
</g>
<g>
	<path d="M1008.1,241v0.3h-2.5v1.3h-0.3v-1.3h-2.5V241h2.5V240h-2.1v-0.3h2.1v-1.1h-2.3v-0.3h2.8c0.3-0.4,0.6-0.8,0.9-1.2l0.3,0.2
		c-0.2,0.3-0.5,0.6-0.8,1h1.6v0.3h-2.3v1.1h2.1v0.3h-2.1v1.1H1008.1z M1004.6,238.2c-0.3-0.3-0.5-0.7-0.8-0.9l0.3-0.2
		c0.3,0.3,0.5,0.6,0.8,0.9L1004.6,238.2z"/>
	<path d="M1011.6,240.6h2.5v0.3h-5.3v-0.3h2.5v-0.9h-2.1v-0.3h2.1v-0.9h-2.2v-0.3h1.5c-0.2-0.4-0.4-0.7-0.5-0.8l0.3-0.1
		c0.3,0.4,0.5,0.7,0.6,0.9h1.2c0.2-0.4,0.5-0.7,0.6-1l0.3,0.1c-0.1,0.2-0.3,0.5-0.6,0.9h1.5v0.3h-2.2v0.9h2.1v0.3h-2.1V240.6z
		 M1008.9,242.5c0.1-0.2,0.3-0.4,0.4-0.7s0.2-0.5,0.3-0.7l0.3,0.1c-0.1,0.2-0.2,0.5-0.3,0.7c-0.1,0.3-0.3,0.5-0.4,0.7L1008.9,242.5z
		 M1010.7,241.2c0,0.2,0.1,0.4,0.2,0.6c0.1,0.3,0.1,0.5,0.1,0.6l-0.3,0c0-0.2-0.1-0.4-0.1-0.6c-0.1-0.2-0.1-0.4-0.2-0.6
		L1010.7,241.2z M1012,241.2c0.2,0.5,0.4,0.9,0.5,1.3l-0.3,0.1c0-0.2-0.1-0.4-0.2-0.6s-0.2-0.5-0.3-0.6L1012,241.2z M1013.2,241.1
		c0.1,0.2,0.3,0.4,0.4,0.7c0.2,0.3,0.3,0.5,0.4,0.7l-0.3,0.1c-0.1-0.2-0.2-0.4-0.3-0.6c-0.1-0.3-0.3-0.5-0.4-0.7L1013.2,241.1z"/>
	<path d="M1016.5,238.8v-1.6h0.3v5.4h-0.3v-1.2l-1.6,0.7l-0.1-0.3c0.6-0.3,1.2-0.5,1.8-0.8v-1.9h-1.6v-0.3H1016.5z M1020.1,240.8
		c0,0.2,0,0.5,0,0.9c0,0.2,0,0.3-0.1,0.4c0,0.1-0.1,0.2-0.2,0.2c-0.1,0-0.2,0.1-0.4,0.1c-0.1,0-0.2,0-0.4,0c-0.2,0-0.3,0-0.4,0
		c-0.2,0-0.3,0-0.4-0.1c-0.1,0-0.2-0.1-0.2-0.2s-0.1-0.3-0.1-0.5v-4.5h0.3v2.1c0.3-0.2,0.5-0.3,0.9-0.5s0.6-0.4,0.8-0.6l0.2,0.3
		c-0.2,0.2-0.5,0.4-0.9,0.6c-0.4,0.2-0.7,0.4-0.9,0.6v1.9c0,0.2,0,0.3,0.1,0.4c0.1,0.1,0.2,0.1,0.3,0.1c0.1,0,0.3,0,0.3,0
		c0.1,0,0.2,0,0.3,0c0.2,0,0.3-0.1,0.4-0.1c0.1-0.1,0.1-0.2,0.1-0.4c0-0.4,0-0.7,0-0.9L1020.1,240.8z"/>
	<path d="M1022.2,241.7l0.7-0.1l0,0.3l-0.8,0.2c-0.5,0.1-1,0.2-1.4,0.3l0-0.3c0.2,0,0.3-0.1,0.4-0.1v-2.3h0.3v2.2l0.6-0.1v-2.6h-0.8
		v-1.7h1.6v1.7h-0.5v1h0.6v0.3h-0.6V241.7z M1022.4,237.8h-1v1.1h1V237.8z M1026.2,239.9l-0.1,0.3c-0.3-0.1-0.6-0.2-0.9-0.3
		c-0.3-0.1-0.5-0.3-0.7-0.4c-0.4,0.3-0.9,0.6-1.5,0.8l-0.1-0.3c0.6-0.2,1-0.4,1.4-0.7c-0.3-0.2-0.5-0.5-0.7-0.9
		c-0.1,0.2-0.3,0.4-0.5,0.6l-0.2-0.2c0.2-0.2,0.4-0.5,0.6-0.8c0.2-0.3,0.3-0.6,0.4-0.8l0.3,0.1c-0.1,0.2-0.1,0.3-0.2,0.5h1.7v0.3
		c-0.3,0.5-0.6,1-1,1.3C1025.1,239.6,1025.6,239.8,1026.2,239.9z M1023.7,242.6h-0.3v-2.1h2.3v2.1h-0.3v-0.4h-1.7V242.6z
		 M1025.3,241.9v-1.2h-1.7v1.2H1025.3z M1024.5,239.1c0.4-0.3,0.7-0.7,0.9-1.1h-1.6l-0.1,0.1C1024,238.5,1024.2,238.8,1024.5,239.1z
		"/>
</g>
<g>
	<path d="M1008.4,422.4v0.3h-2.5v1.3h-0.3v-1.3h-2.5v-0.3h2.5v-1.1h-2.1v-0.3h2.1V420h-2.3v-0.3h2.8c0.3-0.4,0.6-0.8,0.9-1.2
		l0.3,0.2c-0.2,0.3-0.5,0.6-0.8,1h1.6v0.3h-2.3v1.1h2.1v0.3h-2.1v1.1H1008.4z M1004.9,419.6c-0.3-0.3-0.5-0.7-0.8-0.9l0.3-0.2
		c0.3,0.3,0.5,0.6,0.8,0.9L1004.9,419.6z"/>
	<path d="M1011.8,422h2.5v0.3h-5.3V422h2.5V421h-2.1v-0.3h2.1v-0.9h-2.2v-0.3h1.5c-0.2-0.4-0.4-0.7-0.5-0.8l0.3-0.1
		c0.3,0.4,0.5,0.7,0.6,0.9h1.2c0.2-0.4,0.5-0.7,0.6-1l0.3,0.1c-0.1,0.2-0.3,0.5-0.6,0.9h1.5v0.3h-2.2v0.9h2.1v0.3h-2.1V422z
		 M1009.1,423.9c0.1-0.2,0.3-0.4,0.4-0.7c0.1-0.3,0.2-0.5,0.3-0.7l0.3,0.1c-0.1,0.2-0.2,0.4-0.3,0.7c-0.1,0.3-0.3,0.5-0.4,0.7
		L1009.1,423.9z M1011,422.6c0,0.2,0.1,0.4,0.2,0.6c0.1,0.3,0.1,0.5,0.1,0.6l-0.3,0c0-0.2-0.1-0.4-0.1-0.6c-0.1-0.2-0.1-0.4-0.2-0.6
		L1011,422.6z M1012.2,422.6c0.2,0.5,0.4,0.9,0.5,1.3l-0.3,0.1c0-0.2-0.1-0.4-0.2-0.6s-0.2-0.5-0.3-0.6L1012.2,422.6z M1013.4,422.5
		c0.1,0.2,0.3,0.4,0.4,0.7c0.2,0.3,0.3,0.5,0.4,0.7l-0.3,0.1c-0.1-0.2-0.2-0.4-0.3-0.6c-0.1-0.3-0.3-0.5-0.4-0.7L1013.4,422.5z"/>
	<path d="M1020.4,419.6h-2.5v0.7h2.1v3c0,0.3,0,0.4-0.1,0.5s-0.2,0.2-0.5,0.2c-0.3,0-0.6,0-0.8,0l-0.1-0.3c0.3,0,0.5,0,0.7,0
		c0.2,0,0.3,0,0.3-0.1c0-0.1,0.1-0.2,0.1-0.4v-2.7h-3.9v3.4h-0.3v-3.7h2.1v-0.7h-2.5v-0.3h2.5v-0.7h0.3v0.7h2.5V419.6z
		 M1019.3,422.7h-1.5v1.1h-0.3v-1.1h-1.5v-0.3h1.5v-0.7h-1.3v-0.3h0.9l-0.1-0.1c0-0.1-0.1-0.1-0.2-0.3c-0.1-0.1-0.2-0.3-0.3-0.3
		l0.2-0.2c0.2,0.2,0.4,0.5,0.6,0.7l-0.2,0.2h0.7c0.1-0.1,0.2-0.3,0.4-0.5c0.1-0.2,0.2-0.3,0.3-0.4l0.2,0.1c-0.1,0.2-0.3,0.5-0.6,0.8
		h0.9v0.3h-1.3v0.7h1.5V422.7z"/>
	<path d="M1022.4,423.1l0.7-0.1l0,0.3l-0.8,0.2c-0.5,0.1-1,0.2-1.4,0.3l0-0.3c0.2,0,0.3-0.1,0.4-0.1v-2.3h0.3v2.2l0.6-0.1v-2.6h-0.8
		v-1.7h1.6v1.7h-0.5v1h0.6v0.3h-0.6V423.1z M1022.7,419.2h-1v1.1h1V419.2z M1026.5,421.3l-0.1,0.3c-0.3-0.1-0.6-0.2-0.9-0.3
		c-0.3-0.1-0.5-0.3-0.7-0.4c-0.4,0.3-0.9,0.6-1.5,0.8l-0.1-0.3c0.6-0.2,1-0.4,1.4-0.7c-0.3-0.2-0.5-0.5-0.7-0.9
		c-0.1,0.2-0.3,0.4-0.5,0.6l-0.2-0.2c0.2-0.2,0.4-0.5,0.6-0.8c0.2-0.3,0.3-0.6,0.4-0.8l0.3,0.1c-0.1,0.2-0.1,0.3-0.2,0.5h1.7v0.3
		c-0.3,0.5-0.6,1-1,1.3C1025.4,421,1025.9,421.2,1026.5,421.3z M1023.9,424h-0.3v-2.1h2.3v2.1h-0.3v-0.4h-1.7V424z M1025.6,423.3
		v-1.2h-1.7v1.2H1025.6z M1024.8,420.5c0.4-0.3,0.7-0.7,0.9-1.1h-1.6l-0.1,0.1C1024.2,419.9,1024.5,420.3,1024.8,420.5z"/>
</g>
<g>
	<path d="M779.2,240.4v0.3h-2.5v1.3h-0.3v-1.3h-2.5v-0.3h2.5v-1.1h-2.1V239h2.1v-1.1h-2.3v-0.3h2.8c0.3-0.4,0.6-0.8,0.9-1.2l0.3,0.2
		c-0.2,0.3-0.5,0.6-0.8,1h1.6v0.3h-2.3v1.1h2.1v0.3h-2.1v1.1H779.2z M775.7,237.6c-0.3-0.3-0.5-0.7-0.8-0.9l0.3-0.2
		c0.3,0.3,0.5,0.6,0.8,0.9L775.7,237.6z"/>
	<path d="M782.7,239.9h2.5v0.3h-5.3v-0.3h2.5V239h-2.1v-0.3h2.1v-0.9h-2.2v-0.3h1.5c-0.2-0.4-0.4-0.7-0.5-0.8l0.3-0.1
		c0.3,0.4,0.5,0.7,0.6,0.9h1.2c0.2-0.4,0.5-0.7,0.6-1l0.3,0.1c-0.1,0.2-0.3,0.5-0.6,0.9h1.5v0.3h-2.2v0.9h2.1v0.3h-2.1V239.9z
		 M780,241.9c0.1-0.2,0.3-0.4,0.4-0.7s0.2-0.5,0.3-0.7l0.3,0.1c-0.1,0.2-0.2,0.5-0.3,0.7c-0.1,0.3-0.3,0.5-0.4,0.7L780,241.9z
		 M781.8,240.6c0,0.2,0.1,0.4,0.2,0.6c0.1,0.3,0.1,0.5,0.1,0.6l-0.3,0c0-0.2-0.1-0.4-0.1-0.6c-0.1-0.2-0.1-0.4-0.2-0.6L781.8,240.6z
		 M783.1,240.5c0.2,0.5,0.4,0.9,0.5,1.3l-0.3,0.1c0-0.2-0.1-0.4-0.2-0.6s-0.2-0.5-0.3-0.6L783.1,240.5z M784.3,240.5
		c0.1,0.2,0.3,0.4,0.4,0.7c0.2,0.3,0.3,0.5,0.4,0.7l-0.3,0.1c-0.1-0.2-0.2-0.4-0.3-0.6c-0.1-0.3-0.3-0.5-0.4-0.7L784.3,240.5z"/>
	<path d="M787.6,238.2v-1.6h0.3v5.4h-0.3v-1.2l-1.6,0.7l-0.1-0.3c0.6-0.3,1.2-0.5,1.8-0.8v-1.9H786v-0.3H787.6z M791.2,240.1
		c0,0.2,0,0.5,0,0.9c0,0.2,0,0.3-0.1,0.4c0,0.1-0.1,0.2-0.2,0.2c-0.1,0-0.2,0.1-0.4,0.1c-0.1,0-0.2,0-0.4,0c-0.2,0-0.3,0-0.4,0
		c-0.2,0-0.3,0-0.4-0.1c-0.1,0-0.2-0.1-0.2-0.2s-0.1-0.3-0.1-0.5v-4.5h0.3v2.1c0.3-0.2,0.5-0.3,0.9-0.5s0.6-0.4,0.8-0.6l0.2,0.3
		c-0.2,0.2-0.5,0.4-0.9,0.6c-0.4,0.2-0.7,0.4-0.9,0.6v1.9c0,0.2,0,0.3,0.1,0.4c0.1,0.1,0.2,0.1,0.3,0.1c0.1,0,0.3,0,0.3,0
		c0.1,0,0.2,0,0.3,0c0.2,0,0.3-0.1,0.4-0.1c0.1-0.1,0.1-0.2,0.1-0.4c0-0.4,0-0.7,0-0.9L791.2,240.1z"/>
	<path d="M793.3,241.1l0.7-0.1l0,0.3l-0.8,0.2c-0.5,0.1-1,0.2-1.4,0.3l0-0.3c0.2,0,0.3-0.1,0.4-0.1v-2.3h0.3v2.2l0.6-0.1v-2.6h-0.8
		v-1.7h1.6v1.7h-0.5v1h0.6v0.3h-0.6V241.1z M793.5,237.1h-1v1.1h1V237.1z M797.3,239.3l-0.1,0.3c-0.3-0.1-0.6-0.2-0.9-0.3
		c-0.3-0.1-0.5-0.3-0.7-0.4c-0.4,0.3-0.9,0.6-1.5,0.8l-0.1-0.3c0.6-0.2,1-0.4,1.4-0.7c-0.3-0.2-0.5-0.5-0.7-0.9
		c-0.1,0.2-0.3,0.4-0.5,0.6L794,238c0.2-0.2,0.4-0.5,0.6-0.8c0.2-0.3,0.3-0.6,0.4-0.8l0.3,0.1c-0.1,0.2-0.1,0.3-0.2,0.5h1.7v0.3
		c-0.3,0.5-0.6,1-1,1.3C796.2,238.9,796.7,239.1,797.3,239.3z M794.8,241.9h-0.3v-2.1h2.3v2.1h-0.3v-0.4h-1.7V241.9z M796.4,241.3
		v-1.2h-1.7v1.2H796.4z M795.6,238.5c0.4-0.3,0.7-0.7,0.9-1.1h-1.6l-0.1,0.1C795.1,237.9,795.3,238.2,795.6,238.5z"/>
</g>
<g>
	<path d="M779.9,428.9v0.3h-2.5v1.3H777v-1.3h-2.5v-0.3h2.5v-1.1h-2.1v-0.3h2.1v-1.1h-2.3v-0.3h2.8c0.3-0.4,0.6-0.8,0.9-1.2l0.3,0.2
		c-0.2,0.3-0.5,0.6-0.8,1h1.6v0.3h-2.3v1.1h2.1v0.3h-2.1v1.1H779.9z M776.3,426.1c-0.3-0.3-0.5-0.7-0.8-0.9l0.3-0.2
		c0.3,0.3,0.5,0.6,0.8,0.9L776.3,426.1z"/>
	<path d="M783.3,428.4h2.5v0.3h-5.3v-0.3h2.5v-0.9h-2.1v-0.3h2.1v-0.9h-2.2v-0.3h1.5c-0.2-0.4-0.4-0.7-0.5-0.8l0.3-0.1
		c0.3,0.4,0.5,0.7,0.6,0.9h1.2c0.2-0.4,0.5-0.7,0.6-1l0.3,0.1c-0.1,0.2-0.3,0.5-0.6,0.9h1.5v0.3h-2.2v0.9h2.1v0.3h-2.1V428.4z
		 M780.6,430.4c0.1-0.2,0.3-0.4,0.4-0.7c0.1-0.3,0.2-0.5,0.3-0.7l0.3,0.1c-0.1,0.2-0.2,0.4-0.3,0.7c-0.1,0.3-0.3,0.5-0.4,0.7
		L780.6,430.4z M782.5,429c0,0.2,0.1,0.4,0.2,0.6c0.1,0.3,0.1,0.5,0.1,0.6l-0.3,0c0-0.2-0.1-0.4-0.1-0.6c-0.1-0.2-0.1-0.4-0.2-0.6
		L782.5,429z M783.7,429c0.2,0.5,0.4,0.9,0.5,1.3l-0.3,0.1c0-0.2-0.1-0.4-0.2-0.6s-0.2-0.5-0.3-0.6L783.7,429z M784.9,428.9
		c0.1,0.2,0.3,0.4,0.4,0.7c0.2,0.3,0.3,0.5,0.4,0.7l-0.3,0.1c-0.1-0.2-0.2-0.4-0.3-0.6c-0.1-0.3-0.3-0.5-0.4-0.7L784.9,428.9z"/>
	<path d="M791.8,426h-2.5v0.7h2.1v3c0,0.3,0,0.4-0.1,0.5s-0.2,0.2-0.5,0.2c-0.3,0-0.6,0-0.8,0l-0.1-0.3c0.3,0,0.5,0,0.7,0
		c0.2,0,0.3,0,0.3-0.1c0-0.1,0.1-0.2,0.1-0.4V427h-3.9v3.4h-0.3v-3.7h2.1V426h-2.5v-0.3h2.5V425h0.3v0.7h2.5V426z M790.8,429.2h-1.5
		v1.1H789v-1.1h-1.5v-0.3h1.5v-0.7h-1.3V428h0.9l-0.1-0.1c0-0.1-0.1-0.1-0.2-0.3c-0.1-0.1-0.2-0.3-0.3-0.3l0.2-0.2
		c0.2,0.2,0.4,0.5,0.6,0.7l-0.2,0.2h0.7c0.1-0.1,0.2-0.3,0.4-0.5c0.1-0.2,0.2-0.3,0.3-0.4l0.2,0.1c-0.1,0.2-0.3,0.5-0.6,0.8h0.9v0.3
		h-1.3v0.7h1.5V429.2z"/>
	<path d="M793.9,429.6l0.7-0.1l0,0.3l-0.8,0.2c-0.5,0.1-1,0.2-1.4,0.3l0-0.3c0.2,0,0.3-0.1,0.4-0.1v-2.3h0.3v2.2l0.6-0.1V427h-0.8
		v-1.7h1.6v1.7h-0.5v1h0.6v0.3h-0.6V429.6z M794.1,425.6h-1v1.1h1V425.6z M798,427.8l-0.1,0.3c-0.3-0.1-0.6-0.2-0.9-0.3
		c-0.3-0.1-0.5-0.3-0.7-0.4c-0.4,0.3-0.9,0.6-1.5,0.8l-0.1-0.3c0.6-0.2,1-0.4,1.4-0.7c-0.3-0.2-0.5-0.5-0.7-0.9
		c-0.1,0.2-0.3,0.4-0.5,0.6l-0.2-0.2c0.2-0.2,0.4-0.5,0.6-0.8c0.2-0.3,0.3-0.6,0.4-0.8l0.3,0.1c-0.1,0.2-0.1,0.3-0.2,0.5h1.7v0.3
		c-0.3,0.5-0.6,1-1,1.3C796.9,427.4,797.4,427.6,798,427.8z M795.4,430.4h-0.3v-2.1h2.3v2.1h-0.3V430h-1.7V430.4z M797.1,429.8v-1.2
		h-1.7v1.2H797.1z M796.3,426.9c0.4-0.3,0.7-0.7,0.9-1.1h-1.6l-0.1,0.1C795.7,426.4,796,426.7,796.3,426.9z"/>
</g>
<g>
	<path d="M580.7,498.7v0.3h-2.4v0.8c0,0.2,0,0.3-0.1,0.4s-0.1,0.2-0.2,0.2s-0.2,0.1-0.4,0.1c-0.3,0-0.5,0-0.7,0l-0.1-0.3
		c0.3,0,0.5,0.1,0.7,0.1c0.1,0,0.2,0,0.3,0c0.1,0,0.1-0.1,0.1-0.1c0-0.1,0-0.2,0-0.3V499h-2.5v-0.3h2.5v-0.3l1.2-0.7h-2.8v-0.3h3.3
		v0.3l-1.4,0.9v0.2H580.7z M575.9,496.6v0.8h-0.3v-1.1h3.4c0.1-0.2,0.2-0.4,0.4-0.6c0.1-0.2,0.3-0.4,0.4-0.6l0.3,0.1
		c-0.2,0.3-0.4,0.7-0.7,1h1.2v1.1h-0.3v-0.8H575.9z M576.6,496.3c-0.3-0.4-0.5-0.8-0.6-0.9l0.3-0.1c0.1,0.1,0.1,0.2,0.2,0.3l0.4,0.6
		L576.6,496.3z M578.1,496.2l-0.5-1l0.3-0.1c0.1,0.1,0.1,0.2,0.2,0.3c0.1,0.1,0.1,0.2,0.2,0.3c0,0.1,0.1,0.1,0.1,0.2
		c0,0.1,0.1,0.1,0.1,0.2L578.1,496.2z"/>
	<path d="M584.3,500.1h2.4v0.3h-5.2v-0.3h2.5v-1.7H582v-0.3h1.9v-1.3h-1.5c-0.2,0.4-0.4,0.8-0.7,1.2l-0.3-0.2
		c0.3-0.4,0.5-0.7,0.7-1.1s0.3-0.8,0.5-1.2l0.3,0.1c-0.1,0.3-0.2,0.6-0.3,0.9h1.4v-1.2h0.3v1.2h2.2v0.3h-2.2v1.3h1.9v0.3h-1.9V500.1
		z"/>
	<path d="M589.6,495.3c-0.4,1.2-1.1,2.1-2,2.9l-0.2-0.3c0.9-0.7,1.5-1.6,1.9-2.7L589.6,495.3z M590.9,498.3c0.2,0.3,0.4,0.7,0.7,1.1
		c0.3,0.4,0.5,0.8,0.6,1.1l-0.3,0.2l-0.2-0.4l-0.1-0.2l-2.6,0.3l-0.5,0l-0.5,0.1l-0.1-0.3c0.1,0,0.2,0,0.2-0.1c0,0,0.1-0.1,0.1-0.1
		c0.3-0.3,0.6-0.8,0.9-1.2s0.5-1,0.8-1.4l0.3,0.1c-0.2,0.5-0.5,0.9-0.7,1.4c-0.3,0.5-0.6,0.9-0.8,1.2c0.3,0,0.7-0.1,1-0.1
		c0.3,0,0.7-0.1,1-0.1l0.8-0.1c-0.3-0.6-0.6-1-0.8-1.2L590.9,498.3z M590.8,495.2c0.2,0.5,0.3,0.9,0.5,1.2c0.2,0.3,0.4,0.6,0.6,0.9
		c0.2,0.3,0.5,0.5,0.9,0.7l-0.2,0.3c-0.5-0.4-1-0.8-1.3-1.2c-0.3-0.4-0.6-1-0.9-1.7L590.8,495.2z"/>
	<path d="M598.4,495.7v1.1h-0.3V496h-4.2v0.8h-0.3v-1.1h2.3l-0.3-0.5l0.3-0.1c0.1,0.2,0.2,0.4,0.3,0.6H598.4z M596.1,498.2v0.4h2.1
		v1.3c0,0.2,0,0.4-0.1,0.5c-0.1,0.1-0.3,0.1-0.5,0.1c-0.2,0-0.4,0-0.7,0l0-0.3c0.3,0,0.5,0,0.7,0c0.1,0,0.2,0,0.3-0.1
		c0.1-0.1,0.1-0.2,0.1-0.3v-1h-1.8v0.7l0.4,0c0.1,0,0.2,0,0.3,0s0.2,0,0.3,0l-0.2-0.4l0.2-0.1l0.5,0.9l-0.2,0.1l-0.2-0.3l-2.7,0.2
		l0-0.3l1.4-0.1v-0.7H594v1.7h-0.3v-1.9h2.1v-0.4h-1.6v-1.7h3.5v1.7H596.1z M595.8,497.2v-0.5h-1.3v0.5H595.8z M594.5,497.5v0.5h1.3
		v-0.5H594.5z M596.1,497.2h1.3v-0.5h-1.3V497.2z M596.1,497.5v0.5h1.3v-0.5H596.1z"/>
</g>
<g>
	<path d="M697.3,557.8c0.1-0.2,0.3-0.4,0.4-0.7c0.1-0.3,0.2-0.5,0.3-0.8l0.3,0.1c-0.1,0.2-0.2,0.5-0.3,0.8c-0.1,0.3-0.3,0.5-0.4,0.8
		L697.3,557.8z M702,553.8v2h-4v-2h2.4c0.1-0.1,0.2-0.3,0.4-0.5c0.1-0.2,0.3-0.4,0.3-0.5l0.3,0.2c-0.1,0.2-0.4,0.5-0.6,0.9H702z
		 M698.3,555.5h3.4v-1.4h-3.4V555.5z M699.2,553.8c0,0-0.1-0.1-0.1-0.1c-0.3-0.3-0.4-0.6-0.5-0.7l0.3-0.2c0.1,0.1,0.2,0.3,0.3,0.4
		c0.1,0.2,0.2,0.3,0.3,0.4L699.2,553.8z M701.1,557.1c0-0.1,0-0.2,0-0.3l0.3,0.1l0,0.7c0,0.2,0,0.3-0.1,0.4s-0.1,0.1-0.2,0.2
		c-0.1,0-0.2,0.1-0.4,0.1c-0.2,0-0.4,0-0.6,0c-0.2,0-0.4,0-0.6,0c-0.2,0-0.3,0-0.4-0.1c-0.1,0-0.2-0.1-0.2-0.2s-0.1-0.2-0.1-0.4
		v-1.1h0.3v1c0,0.2,0,0.3,0.1,0.3c0.1,0.1,0.2,0.1,0.4,0.1c0.2,0,0.3,0,0.5,0c0.2,0,0.4,0,0.5,0c0.1,0,0.2,0,0.3-0.1
		c0.1,0,0.1-0.1,0.1-0.1c0-0.1,0-0.1,0.1-0.3C701.1,557.3,701.1,557.2,701.1,557.1z M700.4,557.1c-0.3-0.3-0.5-0.6-0.8-1l0.2-0.2
		c0.1,0.1,0.2,0.3,0.4,0.5c0.1,0.2,0.3,0.3,0.4,0.5L700.4,557.1z M701.9,556.2c0.2,0.3,0.5,0.8,0.9,1.4l-0.3,0.1
		c-0.3-0.6-0.6-1.1-0.8-1.4L701.9,556.2z"/>
	<path d="M708.8,555.5l-0.1,0.3c-0.6-0.1-1.1-0.2-1.5-0.4c-0.4-0.1-0.8-0.3-1.1-0.4c-0.7,0.3-1.6,0.6-2.6,0.9l-0.1-0.3
		c1-0.2,1.8-0.5,2.4-0.8c-0.4-0.2-0.8-0.5-1.1-0.9c-0.3,0.3-0.6,0.6-0.9,0.8l-0.2-0.2c0.3-0.2,0.6-0.5,0.9-0.8
		c0.3-0.3,0.6-0.6,0.7-0.9l0.3,0.1c-0.1,0.1-0.2,0.3-0.4,0.5h2.9v0.3c-0.5,0.5-1,0.9-1.6,1.2C706.9,555.1,707.7,555.3,708.8,555.5z
		 M705.6,556.2h2.4c0,0.5-0.1,0.9-0.2,1.3c-0.1,0.3-0.1,0.4-0.3,0.6s-0.3,0.2-0.5,0.2c-0.4,0-0.7,0-1-0.1l0-0.3c0.4,0,0.7,0.1,1,0.1
		c0.2,0,0.3,0,0.4-0.1s0.1-0.2,0.2-0.4c0.1-0.3,0.1-0.6,0.2-1h-2.1c-0.1,0.3-0.2,0.5-0.3,0.7s-0.4,0.4-0.6,0.6
		c-0.3,0.2-0.6,0.4-1.1,0.5l-0.2-0.3c0.4-0.2,0.7-0.3,1-0.5s0.4-0.3,0.6-0.5c0.1-0.2,0.2-0.4,0.3-0.6h-1.7v-0.3h1.7l0-0.1
		c0-0.3,0.1-0.5,0.1-0.6l0.3,0C705.7,555.7,705.6,555.9,705.6,556.2C705.6,556.2,705.6,556.2,705.6,556.2z M706,554.7
		c0.6-0.3,1.1-0.6,1.4-1h-2.7l0,0C705.1,554.1,705.5,554.4,706,554.7z"/>
	<path d="M714,557.7c0.3,0,0.5,0,0.8,0l-0.1,0.3c-0.2,0-0.4,0-0.7,0c-0.2,0-0.4,0-0.7,0c-0.6,0-1.1-0.1-1.5-0.3
		c-0.4-0.1-0.8-0.4-1-0.8c-0.3,0.4-0.8,0.8-1.3,1.2l-0.2-0.3c0.5-0.4,1-0.8,1.3-1.2c-0.3-0.4-0.5-0.9-0.6-1.6
		c-0.1,0.3-0.3,0.6-0.5,0.9l-0.2-0.2c0.2-0.4,0.4-0.8,0.6-1.3s0.4-1,0.5-1.6l0.3,0.1c-0.1,0.3-0.2,0.6-0.3,0.9h1.5v0.3
		c-0.1,0.5-0.2,1-0.4,1.4s-0.4,0.8-0.6,1.2c0.3,0.3,0.6,0.5,0.9,0.7c0.4,0.1,0.8,0.2,1.3,0.3C713.5,557.7,713.8,557.7,714,557.7z
		 M710.8,556.5c0.2-0.3,0.4-0.7,0.5-1c0.1-0.4,0.2-0.8,0.3-1.3h-1.3c-0.1,0.1-0.1,0.3-0.2,0.5C710.3,555.4,710.5,556,710.8,556.5z
		 M713.1,557.4h-0.3v-4.5h0.3v1.4l0.2,0.2c0.1,0,0.3,0.2,0.6,0.4c0.3,0.2,0.6,0.4,0.8,0.6l-0.2,0.3c-0.1-0.1-0.4-0.3-0.7-0.5
		c-0.3-0.2-0.6-0.4-0.8-0.6V557.4z"/>
</g>
<g>
	<path d="M995.3,499.6v0.7h1.6v0.3h-1.6v0.6H995v-0.6h-1.5v0.6h-0.3v-0.6h-1.6v-0.3h1.6v-0.7h0.3v0.7h1.5v-0.7H995.3z M996.3,503.5
		l0-0.3l0.3,0.1c0,0.1,0,0.2,0,0.4s0,0.3,0,0.4c0,0.2-0.1,0.3-0.1,0.5c-0.1,0.1-0.1,0.2-0.3,0.2c-0.1,0-0.3,0.1-0.5,0.1
		c-0.5,0-1,0.1-1.5,0.1c-0.5,0-1,0-1.5-0.1c-0.2,0-0.4-0.1-0.5-0.2c-0.1-0.1-0.1-0.2-0.1-0.4c0-0.1,0.1-0.3,0.2-0.5s0.5-0.4,0.9-0.7
		c0.5-0.3,1.2-0.7,2.1-1.2h-3.1v-0.3h3.7v0.3c-1,0.6-1.8,1-2.3,1.4s-0.8,0.6-1,0.7c-0.2,0.1-0.2,0.3-0.2,0.4c0,0.1,0,0.1,0.1,0.2
		s0.1,0.1,0.3,0.1c0.5,0,1,0.1,1.5,0.1c0.5,0,1,0,1.5-0.1c0.2,0,0.3,0,0.4-0.1c0.1,0,0.1-0.1,0.2-0.2c0-0.1,0.1-0.2,0.1-0.3
		L996.3,503.5z"/>
	<path d="M1000.6,501.2c0.3,0.6,0.6,1.1,0.9,1.6c0.4,0.5,0.8,0.9,1.4,1.3l-0.2,0.3c-0.6-0.4-1.1-0.9-1.5-1.4s-0.7-1.1-1-1.8v3.8
		h-0.3v-3.8c-0.3,0.7-0.6,1.3-1,1.8s-0.9,1-1.4,1.5l-0.2-0.3c0.5-0.4,1-0.9,1.4-1.4c0.4-0.5,0.7-1,1-1.6h-2.1v-0.3h2.4v-1.3h0.3v1.3
		h2.4v0.3H1000.6z M1001.9,500.7c-0.1-0.1-0.3-0.3-0.5-0.4c-0.2-0.2-0.3-0.3-0.5-0.4l0.2-0.2c0.1,0.1,0.3,0.2,0.4,0.4
		c0.2,0.2,0.3,0.3,0.5,0.4L1001.9,500.7z"/>
	<path d="M1005.1,502.6l-0.5-0.5v3h-0.3V502c-0.2,0.7-0.5,1.3-0.8,1.7l-0.2-0.3c0.2-0.3,0.4-0.6,0.5-1.1s0.3-0.8,0.4-1.2h-0.8v-0.3
		h0.8v-1.2h0.3v1.2h0.7v0.3h-0.7v0.6l0.1,0.1c0.3,0.3,0.5,0.4,0.6,0.5L1005.1,502.6z M1006.8,502.5c-0.1,0.1-0.1,0.3-0.2,0.4h2.3
		v0.3h-0.7c-0.1,0.2-0.2,0.4-0.3,0.6c-0.1,0.2-0.2,0.3-0.4,0.4c0.3,0.1,0.7,0.3,1.1,0.4l0.3,0.1l-0.1,0.3l-1.5-0.6
		c-0.2,0.1-0.5,0.2-0.8,0.4c-0.3,0.1-0.7,0.2-1.2,0.3l-0.1-0.3c0.4-0.1,0.8-0.2,1.1-0.2s0.5-0.2,0.7-0.3c-0.5-0.2-0.9-0.4-1.2-0.5
		c0.1-0.2,0.3-0.4,0.4-0.6h-0.9V503h1.1c0.1-0.2,0.2-0.3,0.2-0.5L1006.8,502.5z M1005.4,502.4c0.6-0.3,1.1-0.7,1.4-1.1h-1.2V501h1.4
		v-1.4h0.3v1.4h1.5v0.3h-1.3c0.3,0.4,0.8,0.8,1.4,1.1l-0.2,0.2c-0.3-0.2-0.6-0.4-0.9-0.6c-0.2-0.2-0.5-0.4-0.6-0.7v1.1h-0.3v-1.1
		c-0.2,0.3-0.4,0.5-0.6,0.7c-0.2,0.2-0.5,0.4-0.8,0.6L1005.4,502.4z M1006.3,500.9c-0.2-0.2-0.4-0.5-0.7-0.8l0.2-0.2
		c0,0,0,0.1,0.1,0.1c0.1,0.1,0.1,0.2,0.3,0.3c0.1,0.2,0.2,0.3,0.3,0.4L1006.3,500.9z M1006.5,503.2c-0.1,0.1-0.2,0.3-0.3,0.5
		c0.4,0.2,0.8,0.3,1,0.4c0.1-0.1,0.3-0.2,0.4-0.4c0.1-0.1,0.2-0.3,0.3-0.5H1006.5z M1008.6,500c-0.1,0.1-0.2,0.3-0.4,0.5
		c-0.1,0.2-0.3,0.3-0.4,0.4l-0.2-0.2c0.1-0.1,0.2-0.2,0.4-0.4c0.1-0.2,0.3-0.3,0.4-0.4L1008.6,500z"/>
</g>
<g>
	<path d="M420.2,243.9c0.3,0.3,0.7,0.6,1.1,0.8c0.5,0.3,1,0.5,1.5,0.7l-0.1,0.3c-0.4-0.1-0.7-0.3-1-0.4v1.2h-3.1v0.9
		c0.5-0.1,0.9-0.2,1.2-0.2l0,0.2c-0.6,0.1-1,0.2-1.3,0.3c-0.1,0-0.2,0.1-0.3,0.1l-0.1-0.3c0.1,0,0.1-0.1,0.1-0.1c0,0,0-0.1,0-0.1
		v-1.9c-0.3,0.1-0.6,0.3-0.9,0.4l-0.1-0.3c0.6-0.2,1.1-0.4,1.6-0.7c0.5-0.3,0.8-0.5,1.1-0.8H420.2z M417.5,243.9l-0.2-0.2
		c0.4-0.3,0.6-0.6,0.9-1.1l0.2,0.1c0,0.1-0.1,0.2-0.2,0.3h0.5v-1h0.3v0.4h1.1v0.2H419v0.4h0.9v0.3c-0.2,0.2-0.5,0.5-1,0.8
		c-0.4,0.3-0.9,0.5-1.5,0.7l-0.1-0.3c0.5-0.2,0.9-0.3,1.2-0.5c-0.3-0.2-0.5-0.3-0.8-0.5C417.7,243.7,417.6,243.8,417.5,243.9z
		 M418,243.3L418,243.3c0.2,0.2,0.5,0.4,0.8,0.6c0.3-0.2,0.6-0.4,0.8-0.6H418z M421.4,245.7v-0.4h-2.8v0.4H421.4z M418.6,245.9v0.4
		h2.8v-0.4H418.6z M421.5,245.1c-0.6-0.3-1.1-0.6-1.4-1c-0.3,0.3-0.8,0.7-1.4,1h1.4c0-0.1-0.1-0.3-0.2-0.5l0.2-0.1
		c0.1,0.1,0.2,0.3,0.3,0.6H421.5z M422.2,246.6c-0.4,0.1-0.8,0.3-1.1,0.4l1.3,0.3l-0.1,0.3c-0.4-0.1-0.9-0.2-1.5-0.4
		c-0.2-0.1-0.4-0.1-0.7-0.2c-0.3-0.1-0.5-0.1-0.8-0.2l0.1-0.2c0.4,0.1,0.7,0.2,1.1,0.3l0.2,0.1c0.5-0.1,1-0.3,1.4-0.5L422.2,246.6z
		 M422.1,242.7h-1.8v-0.3h2.1v0.3c-0.2,0.3-0.5,0.6-0.8,0.8c0.5,0.3,0.8,0.5,1,0.6l-0.1,0.2c-0.2-0.2-0.6-0.4-1.2-0.7
		c-0.2,0.1-0.5,0.2-0.8,0.3l-0.1-0.2c0.3-0.1,0.5-0.2,0.7-0.3c-0.3-0.2-0.6-0.4-0.8-0.5l0.1-0.2c0.2,0.1,0.5,0.3,0.9,0.5
		C421.7,243.2,421.9,243,422.1,242.7z"/>
	<path d="M428.8,242.5v0.3h-4.4v1.1c0,0.8,0,1.3-0.1,1.7s-0.1,0.7-0.2,1s-0.3,0.6-0.5,0.9l-0.3-0.2c0.2-0.3,0.4-0.6,0.5-0.9
		c0.1-0.3,0.2-0.6,0.2-0.9c0-0.4,0.1-0.9,0.1-1.7v-1.4H428.8z M428.8,243.9v0.3h-1.6v2.5c0,0.2,0,0.4-0.1,0.5s-0.1,0.2-0.2,0.2
		c-0.1,0-0.3,0.1-0.5,0.1c-0.2,0-0.4,0-0.7,0l-0.1-0.3c0.3,0,0.5,0.1,0.7,0.1c0.2,0,0.3,0,0.3,0c0.1,0,0.1-0.1,0.2-0.1
		c0-0.1,0-0.2,0-0.3v-2.5h-2.1v-0.3H428.8z"/>
	<path d="M431.1,245l-0.5-0.5v3h-0.3v-3.2c-0.2,0.7-0.5,1.3-0.8,1.7l-0.2-0.3c0.2-0.3,0.4-0.6,0.5-1.1c0.2-0.4,0.3-0.8,0.4-1.2h-0.8
		v-0.3h0.8v-1.2h0.3v1.2h0.7v0.3h-0.7v0.6l0.1,0.1c0.3,0.3,0.5,0.4,0.6,0.5L431.1,245z M432.8,245c-0.1,0.1-0.1,0.3-0.2,0.4h2.3v0.3
		h-0.7c-0.1,0.2-0.2,0.4-0.3,0.6s-0.2,0.3-0.4,0.4c0.3,0.1,0.7,0.3,1.1,0.4l0.3,0.1l-0.1,0.3l-1.5-0.6c-0.2,0.1-0.5,0.2-0.8,0.4
		s-0.7,0.2-1.2,0.3l-0.1-0.3c0.4-0.1,0.8-0.2,1.1-0.2c0.3-0.1,0.5-0.2,0.7-0.3c-0.5-0.2-0.9-0.4-1.2-0.5c0.1-0.2,0.3-0.4,0.4-0.6
		h-0.9v-0.3h1.1c0.1-0.2,0.2-0.3,0.2-0.5L432.8,245z M431.3,244.9c0.6-0.3,1.1-0.7,1.4-1.1h-1.2v-0.3h1.4v-1.4h0.3v1.4h1.5v0.3h-1.3
		c0.3,0.4,0.8,0.8,1.4,1.1l-0.2,0.2c-0.3-0.2-0.6-0.4-0.9-0.6c-0.2-0.2-0.5-0.4-0.6-0.7v1.1h-0.3v-1.1c-0.2,0.3-0.4,0.5-0.6,0.7
		s-0.5,0.4-0.8,0.6L431.3,244.9z M432.3,243.3c-0.2-0.2-0.4-0.5-0.7-0.8l0.2-0.2c0,0,0,0.1,0.1,0.1c0.1,0.1,0.1,0.2,0.3,0.3
		c0.1,0.2,0.2,0.3,0.3,0.4L432.3,243.3z M432.4,245.7c-0.1,0.1-0.2,0.3-0.3,0.5c0.4,0.2,0.8,0.3,1,0.4c0.1-0.1,0.3-0.2,0.4-0.4
		c0.1-0.1,0.2-0.3,0.3-0.5H432.4z M434.6,242.5c-0.1,0.1-0.2,0.3-0.4,0.5s-0.3,0.3-0.4,0.4l-0.2-0.2c0.1-0.1,0.2-0.2,0.4-0.4
		s0.3-0.3,0.4-0.4L434.6,242.5z"/>
</g>
<g>
	<path d="M222,240.3c-0.2,0.3-0.4,0.6-0.7,0.8l-0.3-0.2c0.2-0.2,0.4-0.5,0.6-0.8c0.2-0.3,0.3-0.5,0.5-0.8l0.3,0.1
		c-0.1,0.2-0.2,0.3-0.3,0.5h1.6v0.3h-1.1l0.4,0.5l-0.2,0.2l-0.2-0.3l-0.2-0.3H222z M223.9,242.3v0.7h2.2c0,0.4-0.1,0.7-0.1,0.9
		c0,0.2-0.1,0.3-0.2,0.4s-0.2,0.1-0.4,0.1c-0.3,0-0.6,0-0.9,0l0-0.3c0.3,0,0.6,0.1,0.8,0.1c0.1,0,0.2,0,0.3-0.1
		c0.1-0.1,0.1-0.1,0.1-0.3c0-0.2,0.1-0.3,0.1-0.6h-1.9v1.7h-0.3v-1.6c-0.3,0.3-0.6,0.6-1,0.8s-0.8,0.5-1.4,0.7l-0.2-0.3
		c0.5-0.2,1-0.4,1.3-0.6s0.7-0.4,0.9-0.7h-1.8l0.2-1.2h1.9v-0.7h-1.9v-0.3h4.1v1.2H223.9z M223.6,242.3H222l-0.1,0.7h1.7V242.3z
		 M226.4,240v0.3h-1.3l0.4,0.5l-0.2,0.2l-0.2-0.3l-0.3-0.3h-0.4c-0.1,0.2-0.3,0.5-0.5,0.7l-0.3-0.1c0.3-0.4,0.6-0.8,0.8-1.4l0.3,0.1
		c-0.1,0.2-0.2,0.4-0.2,0.5H226.4z M225.5,241.4h-1.6v0.7h1.6V241.4z"/>
	<path d="M227.1,244.2h5.4v0.3h-5.4V244.2z M227.5,240h4.6v0.3h-4.6V240z M227.7,242h4.1v0.3h-4.1V242z"/>
	<path d="M235.9,243.5l-1.2,0.2v0.7c0,0.2,0,0.4-0.1,0.5c-0.1,0.1-0.2,0.1-0.4,0.1c-0.2,0-0.4,0-0.6,0l-0.1-0.3c0.2,0,0.3,0,0.5,0.1
		c0.2,0,0.3,0,0.3-0.1c0.1,0,0.1-0.2,0.1-0.3v-0.5c-0.3,0-0.6,0.1-1,0.1l-0.2,0l0-0.3c0.4,0,0.8-0.1,1.3-0.2V243l0.7-0.7h-1
		c-0.3,0.3-0.6,0.5-1,0.8l-0.2-0.2c0.2-0.2,0.5-0.3,0.7-0.6h-0.4v-0.3h0.8c0.2-0.2,0.4-0.4,0.6-0.6h-1.6v-0.3h1.1v-0.7h-0.9v-0.3
		h0.9v-0.7h0.3v0.7h0.7v0.3h-0.7v0.7h0.4c0.3-0.4,0.6-0.9,0.8-1.4l0.2,0.1c-0.2,0.5-0.5,0.9-0.8,1.3h0.6v0.3H235
		c-0.1,0.2-0.3,0.4-0.5,0.6h1.1v0.3l-0.9,0.8v0.2l0.3,0l0.8-0.1L235.9,243.5z M238.5,244.6l-0.2,0.3c-0.5-0.4-1-0.8-1.3-1.3
		c-0.3,0.4-0.8,0.9-1.4,1.3l-0.2-0.2c0.3-0.2,0.6-0.4,0.8-0.7c0.2-0.2,0.4-0.4,0.6-0.7c-0.3-0.5-0.5-1.1-0.6-1.7
		c-0.1,0.2-0.2,0.4-0.3,0.5l-0.2-0.2c0.2-0.3,0.4-0.7,0.6-1.2c0.2-0.5,0.3-0.9,0.4-1.3l0.3,0c-0.1,0.3-0.2,0.7-0.3,1h1.8v0.3H238
		c-0.1,0.6-0.2,1-0.3,1.4c-0.1,0.4-0.3,0.8-0.5,1.1C237.6,243.8,238,244.2,238.5,244.6z M236.7,242.2c0.1,0.3,0.2,0.6,0.4,0.8
		c0.2-0.3,0.3-0.6,0.4-1s0.2-0.8,0.2-1.3h-1.1c0,0.1-0.1,0.2-0.1,0.4C236.5,241.6,236.6,241.9,236.7,242.2z"/>
	<path d="M244.4,243v0.3H242v0.8c0,0.2,0,0.3-0.1,0.4c0,0.1-0.1,0.2-0.2,0.2s-0.2,0.1-0.4,0.1c-0.3,0-0.5,0-0.7,0l-0.1-0.3
		c0.3,0,0.5,0.1,0.7,0.1c0.1,0,0.2,0,0.3,0c0.1,0,0.1-0.1,0.1-0.1c0-0.1,0-0.2,0-0.3v-0.7h-2.5V243h2.5v-0.3l1.2-0.7h-2.8v-0.3h3.3
		v0.3l-1.4,0.9v0.2H244.4z M239.6,240.9v0.8h-0.3v-1.1h3.4c0.1-0.2,0.2-0.4,0.4-0.6s0.3-0.4,0.4-0.6l0.3,0.1c-0.2,0.3-0.4,0.7-0.7,1
		h1.2v1.1h-0.3v-0.8H239.6z M240.4,240.6c-0.3-0.4-0.5-0.8-0.6-0.9l0.3-0.1c0.1,0.1,0.1,0.2,0.2,0.3l0.4,0.6L240.4,240.6z
		 M241.8,240.5l-0.5-1l0.3-0.1c0.1,0.1,0.1,0.2,0.2,0.3c0.1,0.1,0.1,0.2,0.2,0.3c0,0.1,0.1,0.1,0.1,0.2c0,0.1,0.1,0.1,0.1,0.2
		L241.8,240.5z"/>
	<path d="M246.7,242.4l-0.5-0.5v3h-0.3v-3.2c-0.2,0.7-0.5,1.3-0.8,1.7l-0.2-0.3c0.2-0.3,0.4-0.6,0.5-1.1c0.2-0.4,0.3-0.8,0.4-1.2
		h-0.8v-0.3h0.8v-1.2h0.3v1.2h0.7v0.3h-0.7v0.6l0.1,0.1c0.3,0.3,0.5,0.4,0.6,0.5L246.7,242.4z M248.4,242.4
		c-0.1,0.1-0.1,0.3-0.2,0.4h2.3v0.3h-0.7c-0.1,0.2-0.2,0.4-0.3,0.6s-0.2,0.3-0.4,0.4c0.3,0.1,0.7,0.3,1.1,0.4l0.3,0.1l-0.1,0.3
		l-1.5-0.6c-0.2,0.1-0.5,0.2-0.8,0.4s-0.7,0.2-1.2,0.3l-0.1-0.3c0.4-0.1,0.8-0.2,1.1-0.2c0.3-0.1,0.5-0.2,0.7-0.3
		c-0.5-0.2-0.9-0.4-1.2-0.5c0.1-0.2,0.3-0.4,0.4-0.6h-0.9v-0.3h1.1c0.1-0.2,0.2-0.3,0.2-0.5L248.4,242.4z M246.9,242.2
		c0.6-0.3,1.1-0.7,1.4-1.1h-1.2v-0.3h1.4v-1.4h0.3v1.4h1.5v0.3h-1.3c0.3,0.4,0.8,0.8,1.4,1.1l-0.2,0.2c-0.3-0.2-0.6-0.4-0.9-0.6
		c-0.2-0.2-0.5-0.4-0.6-0.7v1.1h-0.3v-1.1c-0.2,0.3-0.4,0.5-0.6,0.7s-0.5,0.4-0.8,0.6L246.9,242.2z M247.9,240.7
		c-0.2-0.2-0.4-0.5-0.7-0.8l0.2-0.2c0,0,0,0.1,0.1,0.1c0.1,0.1,0.1,0.2,0.3,0.3c0.1,0.2,0.2,0.3,0.3,0.4L247.9,240.7z M248,243.1
		c-0.1,0.1-0.2,0.3-0.3,0.5c0.4,0.2,0.8,0.3,1,0.4c0.1-0.1,0.3-0.2,0.4-0.4c0.1-0.1,0.2-0.3,0.3-0.5H248z M250.2,239.8
		c-0.1,0.1-0.2,0.3-0.4,0.5s-0.3,0.3-0.4,0.4l-0.2-0.2c0.1-0.1,0.2-0.2,0.4-0.4s0.3-0.3,0.4-0.4L250.2,239.8z"/>
</g>
<g>
	<path d="M645.1,206.1c-0.2,0.3-0.4,0.6-0.7,0.8l-0.3-0.2c0.2-0.2,0.4-0.5,0.6-0.8c0.2-0.3,0.3-0.5,0.5-0.8l0.3,0.1
		c-0.1,0.2-0.2,0.3-0.3,0.5h1.6v0.3h-1.1l0.4,0.5l-0.2,0.2l-0.2-0.3l-0.2-0.3H645.1z M647,208.1v0.7h2.2c0,0.4-0.1,0.7-0.1,0.9
		c0,0.2-0.1,0.3-0.2,0.4s-0.2,0.1-0.4,0.1c-0.3,0-0.6,0-0.9,0l0-0.3c0.3,0,0.6,0.1,0.8,0.1c0.1,0,0.2,0,0.3-0.1
		c0.1-0.1,0.1-0.1,0.1-0.3c0-0.2,0.1-0.3,0.1-0.6H647v1.7h-0.3v-1.6c-0.3,0.3-0.6,0.6-1,0.8s-0.8,0.5-1.4,0.7l-0.2-0.3
		c0.5-0.2,1-0.4,1.3-0.6c0.3-0.2,0.7-0.4,0.9-0.7h-1.8l0.2-1.2h1.9v-0.7h-1.9v-0.3h4.1v1.2H647z M646.7,208.1h-1.6l-0.1,0.7h1.7
		V208.1z M649.5,205.8v0.3h-1.3l0.4,0.5l-0.2,0.2l-0.2-0.3l-0.3-0.3h-0.4c-0.1,0.2-0.3,0.5-0.5,0.7l-0.3-0.1
		c0.3-0.4,0.6-0.8,0.8-1.4l0.3,0.1c-0.1,0.2-0.2,0.4-0.2,0.5H649.5z M648.6,207.2H647v0.7h1.6V207.2z"/>
	<path d="M650.2,209.8h5.4v0.3h-5.4V209.8z M650.7,206h4.3v0.3h-4.3V206z"/>
	<path d="M659,209.3l-1.2,0.2v0.7c0,0.2,0,0.4-0.1,0.5s-0.2,0.1-0.4,0.1c-0.2,0-0.4,0-0.6,0l-0.1-0.3c0.2,0,0.3,0,0.5,0.1
		c0.2,0,0.3,0,0.3-0.1c0,0,0.1-0.2,0.1-0.3v-0.5c-0.3,0-0.6,0.1-1,0.1l-0.2,0l0-0.3c0.4,0,0.8-0.1,1.3-0.2v-0.3l0.7-0.7h-1
		c-0.3,0.3-0.6,0.5-1,0.8l-0.2-0.2c0.2-0.2,0.5-0.3,0.7-0.6h-0.4v-0.3h0.8c0.2-0.2,0.4-0.4,0.6-0.6h-1.6V207h1.1v-0.7h-0.9V206h0.9
		v-0.7h0.3v0.7h0.7v0.3h-0.7v0.7h0.4c0.3-0.4,0.6-0.9,0.8-1.4l0.2,0.1c-0.2,0.5-0.5,0.9-0.8,1.3h0.6v0.3h-0.8
		c-0.1,0.2-0.3,0.4-0.5,0.6h1.1v0.3l-0.9,0.8v0.2l0.3,0l0.8-0.1L659,209.3z M661.6,210.4l-0.2,0.3c-0.5-0.4-1-0.8-1.3-1.3
		c-0.3,0.4-0.8,0.9-1.4,1.3l-0.2-0.2c0.3-0.2,0.6-0.4,0.8-0.7c0.2-0.2,0.4-0.4,0.6-0.7c-0.3-0.5-0.5-1.1-0.6-1.7
		c-0.1,0.2-0.2,0.4-0.3,0.5l-0.2-0.2c0.2-0.3,0.4-0.7,0.6-1.2c0.2-0.5,0.3-0.9,0.4-1.3l0.3,0c-0.1,0.3-0.2,0.7-0.3,1h1.8v0.3H661
		c-0.1,0.6-0.2,1-0.3,1.4c-0.1,0.4-0.3,0.8-0.5,1.1C660.6,209.6,661.1,210,661.6,210.4z M659.8,208c0.1,0.3,0.2,0.6,0.4,0.8
		c0.2-0.3,0.3-0.6,0.4-1s0.2-0.8,0.2-1.3h-1.1c0,0.1-0.1,0.2-0.1,0.4C659.6,207.4,659.7,207.7,659.8,208z"/>
	<path d="M667.5,208.8v0.3h-2.4v0.8c0,0.2,0,0.3-0.1,0.4c0,0.1-0.1,0.2-0.2,0.2s-0.2,0.1-0.4,0.1c-0.3,0-0.5,0-0.7,0l-0.1-0.3
		c0.3,0,0.5,0.1,0.7,0.1c0.1,0,0.2,0,0.3,0c0.1,0,0.1-0.1,0.1-0.1c0-0.1,0-0.2,0-0.3v-0.7h-2.5v-0.3h2.5v-0.3l1.2-0.7h-2.8v-0.3h3.3
		v0.3l-1.4,0.9v0.2H667.5z M662.7,206.7v0.8h-0.3v-1.1h3.4c0.1-0.2,0.2-0.4,0.4-0.6c0.1-0.2,0.3-0.4,0.4-0.6l0.3,0.1
		c-0.2,0.3-0.4,0.7-0.7,1h1.2v1.1H667v-0.8H662.7z M663.5,206.3c-0.3-0.4-0.5-0.8-0.6-0.9l0.3-0.1c0.1,0.1,0.1,0.2,0.2,0.3l0.4,0.6
		L663.5,206.3z M664.9,206.3l-0.5-1l0.3-0.1c0.1,0.1,0.1,0.2,0.2,0.3c0.1,0.1,0.1,0.2,0.2,0.3c0,0.1,0.1,0.1,0.1,0.2
		c0,0.1,0.1,0.1,0.1,0.2L664.9,206.3z"/>
	<path d="M669.8,208.2l-0.5-0.5v3H669v-3.2c-0.2,0.7-0.5,1.3-0.8,1.7l-0.2-0.3c0.2-0.3,0.4-0.6,0.5-1.1c0.2-0.4,0.3-0.8,0.4-1.2
		h-0.8v-0.3h0.8v-1.2h0.3v1.2h0.7v0.3h-0.7v0.6l0.1,0.1c0.3,0.3,0.5,0.4,0.6,0.5L669.8,208.2z M671.5,208.2
		c-0.1,0.1-0.1,0.3-0.2,0.4h2.3v0.3h-0.7c-0.1,0.2-0.2,0.4-0.3,0.6c-0.1,0.2-0.2,0.3-0.4,0.4c0.3,0.1,0.7,0.3,1.1,0.4l0.3,0.1
		l-0.1,0.3l-1.5-0.6c-0.2,0.1-0.5,0.2-0.8,0.4s-0.7,0.2-1.2,0.3l-0.1-0.3c0.4-0.1,0.8-0.2,1.1-0.2c0.3-0.1,0.5-0.2,0.7-0.3
		c-0.5-0.2-0.9-0.4-1.2-0.5c0.1-0.2,0.3-0.4,0.4-0.6h-0.9v-0.3h1.1c0.1-0.2,0.2-0.3,0.2-0.5L671.5,208.2z M670,208
		c0.6-0.3,1.1-0.7,1.4-1.1h-1.2v-0.3h1.4v-1.4h0.3v1.4h1.5v0.3h-1.3c0.3,0.4,0.8,0.8,1.4,1.1l-0.2,0.2c-0.3-0.2-0.6-0.4-0.9-0.6
		c-0.2-0.2-0.5-0.4-0.6-0.7v1.1h-0.3V207c-0.2,0.3-0.4,0.5-0.6,0.7c-0.2,0.2-0.5,0.4-0.8,0.6L670,208z M671,206.5
		c-0.2-0.2-0.4-0.5-0.7-0.8l0.2-0.2c0,0,0,0.1,0.1,0.1c0.1,0.1,0.1,0.2,0.3,0.3c0.1,0.2,0.2,0.3,0.3,0.4L671,206.5z M671.1,208.9
		c-0.1,0.1-0.2,0.3-0.3,0.5c0.4,0.2,0.8,0.3,1,0.4c0.1-0.1,0.3-0.2,0.4-0.4c0.1-0.1,0.2-0.3,0.3-0.5H671.1z M673.3,205.6
		c-0.1,0.1-0.2,0.3-0.4,0.5c-0.1,0.2-0.3,0.3-0.4,0.4l-0.2-0.2c0.1-0.1,0.2-0.2,0.4-0.4c0.1-0.2,0.3-0.3,0.4-0.4L673.3,205.6z"/>
</g>
<g>
	<path d="M793.8,179.8c-0.2,0.3-0.4,0.5-0.6,0.8v2.9h-0.3V181c-0.3,0.3-0.6,0.6-0.8,0.8l-0.1-0.3c0.3-0.3,0.6-0.6,0.9-0.9
		c0.3-0.4,0.6-0.7,0.7-1L793.8,179.8z M793.8,178.3c-0.2,0.3-0.4,0.5-0.7,0.8c-0.3,0.3-0.6,0.6-0.8,0.7l-0.2-0.3
		c0.2-0.2,0.5-0.4,0.8-0.7s0.5-0.6,0.7-0.8L793.8,178.3z M797.4,180.2v0.3h-1v2.2c0,0.3-0.1,0.5-0.2,0.6c-0.1,0.1-0.3,0.2-0.6,0.2
		c-0.3,0-0.6,0-0.8,0l-0.1-0.3c0.3,0,0.5,0.1,0.8,0.1c0.2,0,0.3,0,0.4-0.1c0.1-0.1,0.1-0.2,0.1-0.4v-2.1h-2v-0.3H797.4z
		 M794.3,178.4h2.8v0.3h-2.8V178.4z"/>
	<path d="M800.5,182.6c-0.3,0-1.1,0.2-2.2,0.4L798,183l0-0.3l0.5-0.1v-2.8h0.3v2.7l0.7-0.1V179h-1.2v-0.3h2.4v0.3h-0.9v1.5h0.8v0.3
		h-0.8v1.6l0.9-0.2L800.5,182.6z M803.5,183.3l-0.2,0.3c-0.6-0.4-1-0.8-1.4-1.2c-0.3,0.4-0.8,0.8-1.4,1.3l-0.2-0.3
		c0.6-0.4,1.1-0.8,1.5-1.3c-0.2-0.3-0.4-0.6-0.5-1s-0.2-0.7-0.3-1.2c-0.1,0.2-0.2,0.3-0.4,0.5l-0.2-0.2c0.2-0.3,0.4-0.6,0.6-1
		c0.2-0.4,0.3-0.8,0.4-1.1l0.3,0.1c-0.1,0.4-0.2,0.7-0.4,1h2.1v0.3h-0.5c-0.1,0.6-0.2,1.1-0.3,1.5s-0.3,0.8-0.5,1.1
		C802.4,182.5,802.9,182.9,803.5,183.3z M801.4,180.7c0.1,0.4,0.3,0.7,0.5,1c0.2-0.3,0.3-0.6,0.4-1c0.1-0.4,0.2-0.8,0.2-1.3h-1.4
		l0,0.1C801.2,180,801.3,180.4,801.4,180.7z"/>
	<path d="M805.6,181l-0.5-0.5v3h-0.3v-3.2c-0.2,0.7-0.5,1.3-0.8,1.7l-0.2-0.3c0.2-0.3,0.4-0.6,0.5-1.1c0.2-0.4,0.3-0.8,0.4-1.2h-0.8
		v-0.3h0.8v-1.2h0.3v1.2h0.7v0.3h-0.7v0.6l0.1,0.1c0.3,0.3,0.5,0.4,0.6,0.5L805.6,181z M807.3,181c-0.1,0.1-0.1,0.3-0.2,0.4h2.3v0.3
		h-0.7c-0.1,0.2-0.2,0.4-0.3,0.6c-0.1,0.2-0.2,0.3-0.4,0.4c0.3,0.1,0.7,0.3,1.1,0.4l0.3,0.1l-0.1,0.3l-1.5-0.6
		c-0.2,0.1-0.5,0.2-0.8,0.4s-0.7,0.2-1.2,0.3l-0.1-0.3c0.4-0.1,0.8-0.2,1.1-0.2c0.3-0.1,0.5-0.2,0.7-0.3c-0.5-0.2-0.9-0.4-1.2-0.5
		c0.1-0.2,0.3-0.4,0.4-0.6h-0.9v-0.3h1.1c0.1-0.2,0.2-0.3,0.2-0.5L807.3,181z M805.8,180.8c0.6-0.3,1.1-0.7,1.4-1.1H806v-0.3h1.4
		v-1.4h0.3v1.4h1.5v0.3H808c0.3,0.4,0.8,0.8,1.4,1.1l-0.2,0.2c-0.3-0.2-0.6-0.4-0.9-0.6c-0.2-0.2-0.5-0.4-0.6-0.7v1.1h-0.3v-1.1
		c-0.2,0.3-0.4,0.5-0.6,0.7c-0.2,0.2-0.5,0.4-0.8,0.6L805.8,180.8z M806.8,179.3c-0.2-0.2-0.4-0.5-0.7-0.8l0.2-0.2
		c0,0,0,0.1,0.1,0.1c0.1,0.1,0.1,0.2,0.3,0.3c0.1,0.2,0.2,0.3,0.3,0.4L806.8,179.3z M806.9,181.7c-0.1,0.1-0.2,0.3-0.3,0.5
		c0.4,0.2,0.8,0.3,1,0.4c0.1-0.1,0.3-0.2,0.4-0.4c0.1-0.1,0.2-0.3,0.3-0.5H806.9z M809.1,178.4c-0.1,0.1-0.2,0.3-0.4,0.5
		c-0.1,0.2-0.3,0.3-0.4,0.4l-0.2-0.2c0.1-0.1,0.2-0.2,0.4-0.4c0.1-0.2,0.3-0.3,0.4-0.4L809.1,178.4z"/>
</g>
<g>
	<path d="M941.5,198.3c0,0.2,0,0.5,0,0.7c0,0.2-0.1,0.3-0.1,0.4c-0.1,0.1-0.1,0.2-0.3,0.2c-0.1,0-0.3,0.1-0.5,0.1
		c-0.2,0-0.4,0-0.6,0c-0.2,0-0.4,0-0.6,0c-0.2,0-0.4,0-0.5-0.1c-0.1,0-0.2-0.1-0.2-0.2c0-0.1-0.1-0.3-0.1-0.5v-0.7h-1.9v-3h1.9v-0.9
		h0.3v0.9h1.9v3h-1.9v0.6c0,0.1,0,0.2,0.1,0.3c0,0.1,0.1,0.1,0.2,0.2c0.1,0,0.2,0.1,0.3,0.1c0.2,0,0.4,0,0.5,0c0.2,0,0.4,0,0.5,0
		c0.2,0,0.3,0,0.4-0.1c0.1,0,0.1-0.1,0.2-0.1c0-0.1,0.1-0.2,0.1-0.3c0-0.3,0-0.5,0-0.7L941.5,198.3z M938.5,196.6v-1h-1.6v1H938.5z
		 M936.9,196.9v1.1h1.6v-1.1H936.9z M940.5,196.6v-1h-1.6v1H940.5z M938.8,196.9v1.1h1.6v-1.1H938.8z"/>
	<path d="M944.9,198.4l-1.2,0.2v0.7c0,0.2,0,0.4-0.1,0.5s-0.2,0.1-0.4,0.1c-0.2,0-0.4,0-0.6,0l-0.1-0.3c0.2,0,0.3,0,0.5,0.1
		c0.2,0,0.3,0,0.3-0.1c0,0,0.1-0.2,0.1-0.3v-0.5c-0.3,0-0.6,0.1-1,0.1l-0.2,0l0-0.3c0.4,0,0.8-0.1,1.3-0.2V198l0.7-0.7h-1
		c-0.3,0.3-0.6,0.5-1,0.8l-0.2-0.2c0.2-0.2,0.5-0.3,0.7-0.6h-0.4V197h0.8c0.2-0.2,0.4-0.4,0.6-0.6h-1.6v-0.3h1.1v-0.7h-0.9v-0.3h0.9
		v-0.7h0.3v0.7h0.7v0.3h-0.7v0.7h0.4c0.3-0.4,0.6-0.9,0.8-1.4l0.2,0.1c-0.2,0.5-0.5,0.9-0.8,1.3h0.6v0.3H944
		c-0.1,0.2-0.3,0.4-0.5,0.6h1.1v0.3l-0.9,0.8v0.2l0.3,0l0.8-0.1L944.9,198.4z M947.6,199.6l-0.2,0.3c-0.5-0.4-1-0.8-1.3-1.3
		c-0.3,0.4-0.8,0.9-1.4,1.3l-0.2-0.2c0.3-0.2,0.6-0.4,0.8-0.7c0.2-0.2,0.4-0.4,0.6-0.7c-0.3-0.5-0.5-1.1-0.6-1.7
		c-0.1,0.2-0.2,0.4-0.3,0.5l-0.2-0.2c0.2-0.3,0.4-0.7,0.6-1.2c0.2-0.5,0.3-0.9,0.4-1.3l0.3,0c-0.1,0.3-0.2,0.7-0.3,1h1.8v0.3H947
		c-0.1,0.6-0.2,1-0.3,1.4c-0.1,0.4-0.3,0.8-0.5,1.1C946.6,198.7,947,199.1,947.6,199.6z M945.7,197.2c0.1,0.3,0.2,0.6,0.4,0.8
		c0.2-0.3,0.3-0.6,0.4-1s0.2-0.8,0.2-1.3h-1.1c0,0.1-0.1,0.2-0.1,0.4C945.5,196.5,945.6,196.8,945.7,197.2z"/>
	<path d="M949.7,197.3l-0.5-0.5v3H949v-3.2c-0.2,0.7-0.5,1.3-0.8,1.7l-0.2-0.3c0.2-0.3,0.4-0.6,0.5-1.1c0.2-0.4,0.3-0.8,0.4-1.2
		h-0.8v-0.3h0.8v-1.2h0.3v1.2h0.7v0.3h-0.7v0.6l0.1,0.1c0.3,0.3,0.5,0.4,0.6,0.5L949.7,197.3z M951.4,197.3
		c-0.1,0.1-0.1,0.3-0.2,0.4h2.3v0.3h-0.7c-0.1,0.2-0.2,0.4-0.3,0.6c-0.1,0.2-0.2,0.3-0.4,0.4c0.3,0.1,0.7,0.3,1.1,0.4l0.3,0.1
		l-0.1,0.3l-1.5-0.6c-0.2,0.1-0.5,0.2-0.8,0.4s-0.7,0.2-1.2,0.3l-0.1-0.3c0.4-0.1,0.8-0.2,1.1-0.2c0.3-0.1,0.5-0.2,0.7-0.3
		c-0.5-0.2-0.9-0.4-1.2-0.5c0.1-0.2,0.3-0.4,0.4-0.6h-0.9v-0.3h1.1c0.1-0.2,0.2-0.3,0.2-0.5L951.4,197.3z M950,197.2
		c0.6-0.3,1.1-0.7,1.4-1.1h-1.2v-0.3h1.4v-1.4h0.3v1.4h1.5v0.3h-1.3c0.3,0.4,0.8,0.8,1.4,1.1l-0.2,0.2c-0.3-0.2-0.6-0.4-0.9-0.6
		c-0.2-0.2-0.5-0.4-0.6-0.7v1.1h-0.3v-1.1c-0.2,0.3-0.4,0.5-0.6,0.7c-0.2,0.2-0.5,0.4-0.8,0.6L950,197.2z M951,195.6
		c-0.2-0.2-0.4-0.5-0.7-0.8l0.2-0.2c0,0,0,0.1,0.1,0.1c0.1,0.1,0.1,0.2,0.3,0.3c0.1,0.2,0.2,0.3,0.3,0.4L951,195.6z M951.1,198
		c-0.1,0.1-0.2,0.3-0.3,0.5c0.4,0.2,0.8,0.3,1,0.4c0.1-0.1,0.3-0.2,0.4-0.4c0.1-0.1,0.2-0.3,0.3-0.5H951.1z M953.3,194.8
		c-0.1,0.1-0.2,0.3-0.4,0.5c-0.1,0.2-0.3,0.3-0.4,0.4l-0.2-0.2c0.1-0.1,0.2-0.2,0.4-0.4c0.1-0.2,0.3-0.3,0.4-0.4L953.3,194.8z"/>
</g>
<g>
	<path d="M1083.1,199.1h-2.2c0,0.1-0.1,0.2-0.1,0.3c1.1,0.5,1.9,0.9,2.2,1l-0.1,0.3l-0.2-0.1c-0.2-0.1-0.5-0.3-1-0.5
		c-0.5-0.2-0.8-0.4-1-0.5c-0.2,0.2-0.5,0.5-1,0.6c-0.4,0.2-1,0.3-1.6,0.5l-0.1-0.3c0.8-0.2,1.4-0.4,1.8-0.6s0.7-0.5,0.9-0.8h-2.8
		v-0.3h2.9c0.1-0.2,0.1-0.6,0.1-1c0-0.1,0-0.4,0-1l0-0.2h0.3c0,0.2,0,0.4,0,0.6c0,0.2,0,0.5,0,0.6c0,0.4-0.1,0.7-0.1,0.9h2.1V199.1z
		 M1078.4,196.3v0.8h-0.3V196h2.4c-0.1-0.2-0.2-0.4-0.3-0.7l0.3-0.1c0.1,0.1,0.1,0.3,0.3,0.6l0.1,0.2h2.1v1.1h-0.3v-0.8H1078.4z
		 M1078.7,197.6c0.2,0.1,0.5,0.2,0.7,0.4c0.3,0.2,0.5,0.3,0.7,0.4l-0.2,0.3c-0.2-0.1-0.4-0.2-0.7-0.4s-0.5-0.3-0.7-0.4L1078.7,197.6
		z M1080.3,197.7c-0.2-0.1-0.4-0.2-0.6-0.4c-0.3-0.2-0.5-0.3-0.6-0.4l0.1-0.3c0.2,0.1,0.4,0.2,0.6,0.4c0.3,0.2,0.5,0.3,0.7,0.4
		L1080.3,197.7z"/>
	<path d="M1085.2,199.2c-0.2,0-0.6,0.1-1.2,0.3l-0.2,0l0-0.3l1.2-0.2l0.3-0.1L1085.2,199.2z M1085.5,195.6l-0.2,2.3h0.4
		c0,0.7,0,1.3-0.1,2c0,0.2,0,0.3-0.1,0.4c0,0.1-0.1,0.2-0.2,0.2c-0.1,0-0.2,0.1-0.4,0.1c-0.2,0-0.4,0-0.6,0l-0.1-0.3
		c0.2,0,0.4,0,0.6,0c0.1,0,0.2,0,0.3,0c0.1,0,0.1-0.1,0.1-0.1c0-0.1,0.1-0.2,0.1-0.3c0-0.2,0-0.4,0.1-0.8s0-0.6,0-0.9h-1.4l0.2-2
		l0.3,0l-0.1,1.7h0.7l0.2-2h-1.3v-0.3H1085.5z M1085.9,197.6l-0.2-0.2c0.7-0.6,1.3-1.3,1.7-2.1h0.3c0.4,0.8,0.9,1.5,1.7,2.1
		l-0.2,0.2c-0.7-0.6-1.3-1.2-1.6-2C1087.1,196.4,1086.6,197.1,1085.9,197.6z M1088.8,198c-0.1,0.3-0.2,0.7-0.3,1.1s-0.2,0.8-0.4,1.1
		h1.1v0.3h-3.3v-0.3h1.9c0.1-0.3,0.3-0.7,0.4-1.1c0.1-0.4,0.2-0.8,0.3-1.2L1088.8,198z M1086.6,199.8c0-0.2-0.1-0.5-0.2-0.9
		c-0.1-0.4-0.2-0.6-0.2-0.8l0.2-0.1c0.1,0.2,0.1,0.5,0.2,0.8c0.1,0.4,0.2,0.7,0.2,0.9L1086.6,199.8z M1086.4,197.3h2.2v0.3h-2.2
		V197.3z M1087.5,199.6c-0.1-0.3-0.1-0.6-0.2-0.9s-0.1-0.6-0.2-0.7l0.3-0.1c0.1,0.2,0.1,0.4,0.2,0.8c0.1,0.3,0.2,0.6,0.2,0.9
		L1087.5,199.6z"/>
	<path d="M1091.4,198.2l-0.5-0.5v3h-0.3v-3.2c-0.2,0.7-0.5,1.3-0.8,1.7l-0.2-0.3c0.2-0.3,0.4-0.6,0.5-1.1c0.2-0.4,0.3-0.8,0.4-1.2
		h-0.8v-0.3h0.8v-1.2h0.3v1.2h0.7v0.3h-0.7v0.6l0.1,0.1c0.3,0.3,0.5,0.4,0.6,0.5L1091.4,198.2z M1093.1,198.2
		c-0.1,0.1-0.1,0.3-0.2,0.4h2.3v0.3h-0.7c-0.1,0.2-0.2,0.4-0.3,0.6c-0.1,0.2-0.2,0.3-0.4,0.4c0.3,0.1,0.7,0.3,1.1,0.4l0.3,0.1
		l-0.1,0.3l-1.5-0.6c-0.2,0.1-0.5,0.2-0.8,0.4s-0.7,0.2-1.2,0.3l-0.1-0.3c0.4-0.1,0.8-0.2,1.1-0.2c0.3-0.1,0.5-0.2,0.7-0.3
		c-0.5-0.2-0.9-0.4-1.2-0.5c0.1-0.2,0.3-0.4,0.4-0.6h-0.9v-0.3h1.1c0.1-0.2,0.2-0.3,0.2-0.5L1093.1,198.2z M1091.7,198
		c0.6-0.3,1.1-0.7,1.4-1.1h-1.2v-0.3h1.4v-1.4h0.3v1.4h1.5v0.3h-1.3c0.3,0.4,0.8,0.8,1.4,1.1l-0.2,0.2c-0.3-0.2-0.6-0.4-0.9-0.6
		c-0.2-0.2-0.5-0.4-0.6-0.7v1.1h-0.3V197c-0.2,0.3-0.4,0.5-0.6,0.7c-0.2,0.2-0.5,0.4-0.8,0.6L1091.7,198z M1092.7,196.5
		c-0.2-0.2-0.4-0.5-0.7-0.8l0.2-0.2c0,0,0,0.1,0.1,0.1c0.1,0.1,0.1,0.2,0.3,0.3c0.1,0.2,0.2,0.3,0.3,0.4L1092.7,196.5z
		 M1092.8,198.9c-0.1,0.1-0.2,0.3-0.3,0.5c0.4,0.2,0.8,0.3,1,0.4c0.1-0.1,0.3-0.2,0.4-0.4c0.1-0.1,0.2-0.3,0.3-0.5H1092.8z
		 M1095,195.7c-0.1,0.1-0.2,0.3-0.4,0.5c-0.1,0.2-0.3,0.3-0.4,0.4l-0.2-0.2c0.1-0.1,0.2-0.2,0.4-0.4c0.1-0.2,0.3-0.3,0.4-0.4
		L1095,195.7z"/>
</g>
<g>
	<path d="M366,496.8h5.4v0.3H366V496.8z M366.6,493.1h4.3v0.3h-4.3V493.1z"/>
	<path d="M373.4,492.3h0.3v2.3c0,0.6,0,1.1-0.1,1.4c-0.1,0.4-0.2,0.7-0.4,0.9c-0.2,0.3-0.4,0.5-0.8,0.8l-0.2-0.2
		c0.4-0.3,0.6-0.5,0.8-0.7c0.2-0.2,0.3-0.5,0.3-0.8c0.1-0.3,0.1-0.8,0.1-1.3V492.3z M372.4,492.7h0.3v3.6h-0.3V492.7z M377.4,493
		h-1.6v0.9h1.2v2.4c0,0.2,0,0.3,0,0.4c0,0.1-0.1,0.1-0.2,0.2c-0.1,0-0.2,0.1-0.3,0.1c-0.1,0-0.3,0-0.4,0l-0.1-0.3c0.1,0,0.3,0,0.4,0
		c0.1,0,0.2,0,0.3-0.1s0.1-0.2,0.1-0.3v-2h-0.9v3.5h-0.3v-3.5h-0.9v2.7h-0.3v-3h1.2V493h-1.5v-0.3h3.3V493z"/>
	<path d="M379.8,492.9l-0.4,1.4c0.2,0.2,0.3,0.5,0.4,0.7c0.1,0.2,0.1,0.4,0.1,0.7c0,0.3,0,0.5-0.1,0.7c-0.1,0.1-0.2,0.2-0.5,0.2
		c-0.1,0-0.3,0-0.4,0l-0.1-0.3c0.1,0,0.2,0,0.3,0c0.1,0,0.2,0,0.3,0c0.1,0,0.1-0.1,0.1-0.2c0-0.1,0-0.2,0-0.4c0-0.4-0.2-0.8-0.5-1.3
		l0.5-1.5h-0.9v4.8h-0.3v-5.1h1.5V492.9z M381.1,492.4c-0.1,0.4-0.2,0.8-0.4,1.2v4.2h-0.3v-3.5c-0.1,0.3-0.3,0.5-0.4,0.7l-0.2-0.3
		c0.2-0.3,0.4-0.6,0.5-1s0.3-0.8,0.5-1.3L381.1,492.4z M383.5,493.6v0.3h-0.7v3.1c0,0.2,0,0.3-0.1,0.4c0,0.1-0.1,0.2-0.2,0.2
		s-0.3,0.1-0.4,0.1c-0.2,0-0.4,0-0.6,0l-0.1-0.3c0.2,0,0.4,0.1,0.6,0.1c0.2,0,0.3,0,0.3-0.1c0.1-0.1,0.1-0.2,0.1-0.4v-3H381v-0.3
		h1.5v-1.2h0.3v1.2H383.5z M381.8,496c-0.1-0.2-0.2-0.4-0.3-0.7c-0.1-0.3-0.2-0.5-0.3-0.8l0.3-0.1c0.2,0.4,0.4,0.9,0.7,1.4
		L381.8,496z"/>
	<path d="M384,496.6c0.2-0.4,0.5-1,0.7-1.5s0.4-1.1,0.5-1.6l0.3,0.1c-0.1,0.5-0.3,1.1-0.5,1.6s-0.4,1.1-0.7,1.6L384,496.6z
		 M386.4,497.3c0.1,0,0.1-0.1,0.2-0.2c0-0.1,0-0.2,0-0.4v-4.4h0.3v4.5c0,0.2,0,0.4-0.1,0.5c-0.1,0.1-0.1,0.2-0.3,0.2
		c-0.1,0-0.3,0.1-0.6,0.1c-0.2,0-0.4,0-0.6,0l-0.1-0.3c0.2,0,0.5,0,0.6,0C386.2,497.3,386.3,497.3,386.4,497.3z M388.2,493.4
		c0.2,0.5,0.7,1.6,1.3,3.2l-0.3,0.1c-0.2-0.4-0.4-1-0.6-1.6c-0.3-0.7-0.5-1.2-0.7-1.6L388.2,493.4z"/>
</g>
<g>
	<path d="M323.3,349.9v1.3h0.7v0.3h-5.4v-0.3h0.7v-1.3H323.3z M319.5,347.1c-0.2,0.3-0.5,0.6-0.7,0.8l-0.2-0.2
		c0.2-0.2,0.4-0.5,0.6-0.8c0.2-0.3,0.4-0.5,0.5-0.8l0.3,0.1c-0.1,0.2-0.2,0.3-0.3,0.6h1.6v0.3h-1c0.1,0.1,0.2,0.3,0.3,0.5l-0.2,0.1
		c-0.1-0.3-0.3-0.5-0.3-0.6H319.5z M319.4,347.9v1.6h-0.3v-1.6H319.4z M320.5,350.1h-1v1h1V350.1z M320.7,349.6h-0.3v-1.8h0.3V349.6
		z M320.8,351.2h0.9v-1h-0.9V351.2z M323.9,348.2v0.3h-2.1c-0.2,0.4-0.4,0.7-0.6,1l-0.3-0.2c0.2-0.2,0.4-0.5,0.5-0.8
		s0.3-0.6,0.4-0.9l0.3,0.1c0,0.1-0.1,0.3-0.2,0.5H323.9z M321.1,347.6c0.3-0.4,0.6-0.9,0.8-1.4l0.3,0.1c-0.1,0.2-0.2,0.4-0.3,0.6h2
		v0.3h-1.2c0.1,0.2,0.3,0.4,0.4,0.5l-0.2,0.1c-0.1-0.2-0.3-0.4-0.4-0.7h-0.6c-0.1,0.2-0.3,0.5-0.5,0.7L321.1,347.6z M323.2,349.6
		c-0.2-0.1-0.6-0.4-1.2-0.8l0.2-0.2c0.5,0.3,0.9,0.6,1.2,0.8L323.2,349.6z M322,351.2h1v-1h-1V351.2z"/>
	<path d="M324.6,347.2v-0.3h1.8v0.3h-0.7v1.4h0.7v0.3h-0.7v1.7l0.6-0.2l0,0.3l-0.7,0.2c-0.2,0-0.3,0.1-0.5,0.1
		c-0.2,0-0.4,0.1-0.5,0.1l-0.1-0.3c0.1,0,0.3-0.1,0.7-0.2l0.2-0.1v-1.8h-0.7v-0.3h0.7v-1.4H324.6z M330.1,350.8l-0.2,0.3
		c-0.4-0.4-0.7-0.8-1-1.2c-0.3-0.4-0.5-0.9-0.6-1.4v2.5c0,0.2,0,0.4-0.1,0.5c-0.1,0.1-0.2,0.1-0.4,0.1c-0.2,0-0.4,0-0.6,0l-0.1-0.3
		c0.2,0,0.4,0,0.6,0c0.1,0,0.2,0,0.3-0.1c0.1-0.1,0.1-0.2,0.1-0.3v-1.4c-0.4,0.3-0.8,0.7-1.3,1.2l-0.2-0.3c0.6-0.5,1.1-0.9,1.5-1.3
		v-1.5h-1.4v-0.3h1.4v-1.1h0.3v1.1h1.6v0.3h-1.6v0c0.1,0.5,0.3,1,0.5,1.4c0.1-0.1,0.3-0.3,0.5-0.5s0.3-0.4,0.4-0.5l0.2,0.2
		c-0.1,0.2-0.3,0.3-0.5,0.5c-0.2,0.2-0.4,0.4-0.5,0.5C329.2,349.9,329.6,350.4,330.1,350.8z M326.8,348c0.1,0.1,0.2,0.3,0.4,0.5
		c0.2,0.2,0.3,0.4,0.4,0.5l-0.2,0.2c-0.1-0.1-0.2-0.3-0.4-0.5c-0.2-0.2-0.3-0.4-0.4-0.5L326.8,348z M329.3,347.2
		c-0.1-0.1-0.2-0.2-0.3-0.3s-0.3-0.3-0.4-0.4l0.2-0.2c0.1,0.1,0.3,0.2,0.4,0.4c0.1,0.1,0.3,0.3,0.4,0.4L329.3,347.2z"/>
	<path d="M332.4,350.1c-0.7,0.3-1.3,0.5-1.9,0.6l-0.1-0.3c0.3-0.1,0.5-0.1,0.9-0.2V348h-0.8v-0.3h0.8v-1.5h0.3v1.5h0.8v0.3h-0.8v2
		c0.3-0.1,0.6-0.2,0.7-0.3L332.4,350.1z M333.1,348.3h2.6c0,0.5,0,0.9-0.1,1.4c0,0.5-0.1,0.8-0.1,1.1c0,0.2-0.1,0.3-0.1,0.4
		c-0.1,0.1-0.1,0.2-0.2,0.2c-0.1,0-0.2,0.1-0.4,0.1c-0.2,0-0.4,0-0.6,0l-0.1-0.3c0.3,0,0.5,0.1,0.6,0.1c0.1,0,0.2,0,0.3,0
		c0.1,0,0.1-0.1,0.2-0.2c0-0.1,0.1-0.2,0.1-0.3c0.1-0.4,0.1-1.1,0.2-2.1h-0.6c-0.1,0.5-0.2,0.9-0.4,1.2s-0.3,0.6-0.6,0.9
		c-0.2,0.3-0.5,0.6-0.9,0.8l-0.2-0.2c0.3-0.2,0.6-0.5,0.8-0.7c0.2-0.3,0.4-0.5,0.5-0.8c0.1-0.3,0.3-0.7,0.4-1.1h-0.7
		c-0.1,0.5-0.3,1-0.6,1.4c-0.3,0.4-0.7,0.8-1.2,1.2l-0.2-0.2c0.5-0.3,0.9-0.7,1.1-1.1s0.5-0.8,0.6-1.3h-0.9v-0.3l2.1-1.4h-2v-0.3
		h2.5v0.3L333.1,348.3z"/>
</g>
</svg>
